<svg width="82" height="31" viewBox="0 0 82 31" fill="none" xmlns="http://www.w3.org/2000/svg">
<path fill-rule="evenodd" clip-rule="evenodd" d="M15.5702 8C15.5702 12.1323 12.2066 15.5 8.07929 15.5C3.95201 15.5 0.588379 12.1323 0.588379 8C0.588379 3.86772 3.95201 0.5 8.07929 0.5C12.2066 0.5 15.5702 3.86772 15.5702 8ZM11.8247 8C11.8247 5.92476 10.1338 4.25 8.07929 4.25C6.02474 4.25 4.33383 5.92476 4.33383 8C4.33383 10.0752 6.00656 11.75 8.07929 11.75C10.152 11.75 11.8247 10.0752 11.8247 8ZM17.4613 30.5V17.3568H30.5885V30.5H17.4613ZM21.2249 26.75H26.8431V21.125H21.2249V26.75ZM24.479 0.5L2.02448 30.4818H6.71539L29.1699 0.5H24.479ZM38.4839 6.30603H40.7976C41.5037 6.30603 41.8042 6.11049 41.9995 5.91495C42.1798 5.71941 42.285 5.44866 42.285 5.13279C42.27 4.51609 42.0897 3.91442 40.7976 3.91442H38.4839V6.30603ZM41.1732 9.72045H40.7976H38.4839V12.1421H41.1732C42.901 12.1421 43.0212 11.4953 43.0212 10.9539C43.0062 10.4124 42.7808 9.72045 41.1732 9.72045ZM45.6955 5.08766C45.7105 5.99015 45.4551 6.92273 44.9142 7.70489C45.8457 8.56225 46.4016 9.70541 46.4317 10.8937C46.4617 13.2853 44.2682 15.5415 41.1732 15.5415H38.4839V27.0856H46.1763V30.5H35.0884V15.5415V15.4434V12.1421V9.72045V6.30603V3.91442V0.5H38.4839H40.7976C43.6672 0.5 45.6654 2.80135 45.6955 5.08766ZM49.8896 15.5566V0.5H54.0212L58.1078 8.87813L62.2093 0.5H66.341V15.5566H62.9455V6.77231L59.5651 13.6613H58.1078H56.6654L53.285 6.77231V15.5566H49.8896ZM75.029 7.26868H73.6468V3.91442H76.7568C77.3427 3.91442 77.5681 4.07988 77.7935 4.35063C78.0188 4.63642 78.1841 5.10271 78.1841 5.58403C78.1841 6.0804 78.0188 6.54669 77.7935 6.81744C77.5681 7.10323 77.3427 7.26868 76.7568 7.26868H75.029ZM75.029 10.6681C75.2995 10.6681 75.5549 10.7734 75.9605 11.1945C76.3812 11.6157 76.8319 12.3377 77.2376 13.1349C77.5952 13.8511 77.9151 14.6303 78.2087 15.3455L78.2893 15.5415H82.0002C81.895 15.3159 81.6847 14.8646 81.4744 14.3382C81.1589 13.556 80.7682 12.5934 80.2875 11.6157C80.002 11.0441 79.6865 10.4876 79.3259 9.94607C79.7466 9.69037 80.1222 9.35945 80.4227 8.99846C81.249 8.00572 81.5946 6.78735 81.5946 5.58403C81.5946 4.39575 81.234 3.17739 80.4227 2.18465C79.5964 1.19191 78.2592 0.5 76.7568 0.5H73.6468H72.6552H70.2514V15.4434H70.2461V18.8579V21.2495V24.6639V27.0856V30.485H73.6415H76.3308C79.4258 30.485 81.6193 28.2287 81.5893 25.8371C81.5592 24.6489 81.0033 23.5057 80.0718 22.6483C80.6127 21.8662 80.8681 20.9336 80.8531 20.0311C80.8231 17.7448 78.8248 15.4434 75.9552 15.4434H73.6468V10.6681H75.029ZM56.1159 15.4434L50.4518 30.485H54.0876L55.2445 27.4165H61.164L62.3208 30.485H65.9717L60.2926 15.4434H56.1159ZM56.5366 24.0171L58.2042 19.5799L59.8869 24.0171H56.5366ZM73.6415 21.2495H75.9552C76.6614 21.2495 76.9619 21.0539 77.1572 20.8584C77.3375 20.6629 77.4426 20.3921 77.4426 20.0762C77.4276 19.4595 77.2473 18.8579 75.9552 18.8579H73.6415V21.2495ZM76.3308 24.6639H75.9552H73.6415V27.0856H76.3308C78.0586 27.0856 78.1788 26.4388 78.1788 25.8973C78.1638 25.3558 77.9384 24.6639 76.3308 24.6639Z" fill="white"/>
</svg>
