<svg width="91" height="70" viewBox="0 0 91 70" fill="none" xmlns="http://www.w3.org/2000/svg">
<path d="M8.37045 55.4517C11.217 62.5038 25.2539 69.4458 48.6445 69.4458C72.0352 69.4458 91 61.053 91 50.7014C91 47.1753 88.8023 44.1022 84.9763 41.4577L85.7109 45.4001L84.3213 49.6607L80.1525 54.1723L73.737 57.9433L65.2402 60.9367L52.6542 63.1771L41.4088 63.6119L30.3287 62.7242L20.4729 60.6612L12.9984 57.9555L8.37045 55.4517Z" fill="#292929"/>
<path d="M70.2232 31.0082C79.6811 34.4485 85.7109 39.0458 85.7109 44.8858C85.7109 55.2375 66.7462 63.6303 43.3555 63.6303C19.9648 63.6303 1 55.2375 1 44.8858C1 39.0887 6.94411 34.5219 16.2857 31.0816" fill="white"/>
<path d="M70.2232 31.0082C79.6811 34.4485 85.7109 39.0458 85.7109 44.8858C85.7109 55.2375 66.7462 63.6303 43.3555 63.6303C19.9648 63.6303 1 55.2375 1 44.8858C1 39.0887 6.94411 34.5219 16.2857 31.0816" stroke="#292929" stroke-width="1.02845" stroke-miterlimit="10" stroke-linecap="round" stroke-linejoin="round"/>
<path d="M12.9922 10.1273C12.9922 10.1273 13.0412 33.0038 24.6417 41.9781C36.8053 51.3931 53.9091 51.2769 63.4343 41.7455C73.3024 31.8775 74.6247 10.1211 74.6247 10.1211" fill="white"/>
<path d="M12.9922 10.1273C12.9922 10.1273 13.0412 33.0038 24.6417 41.9781C36.8053 51.3931 53.9091 51.2769 63.4343 41.7455C73.3024 31.8775 74.6247 10.1211 74.6247 10.1211" stroke="#292929" stroke-width="1.02845" stroke-miterlimit="10" stroke-linecap="round" stroke-linejoin="round"/>
<path d="M61.604 18.1773C61.9774 20.7973 61.604 27.7209 58.8615 34.3812C56.823 39.3275 51.6747 47.3161 43.3555 48.0997L51.5339 48.2159L57.3923 46.1101L62.4182 42.7187L67.3032 36.6707L70.3824 30.1204L73.3759 19.2607L74.3737 11.3271L69.5315 14.9328L63.8507 17.6385L61.604 18.1773Z" fill="#292929"/>
<path d="M43.8146 19.2545C60.8339 19.2545 74.6308 15.1682 74.6308 10.1273C74.6308 5.08639 60.8339 1 43.8146 1C26.7953 1 12.9984 5.08639 12.9984 10.1273C12.9984 15.1682 26.7953 19.2545 43.8146 19.2545Z" fill="white" stroke="#292929" stroke-width="1.02845" stroke-miterlimit="10" stroke-linecap="round" stroke-linejoin="round"/>
<path d="M73.8289 16.7387C88.6922 16.2673 87.6637 30.0409 71.3618 29.5512" stroke="#292929" stroke-width="1.02845" stroke-miterlimit="10" stroke-linecap="round" stroke-linejoin="round"/>
<path d="M22.4624 10.0783C30.898 6.98072 52.948 5.8238 61.604 8.46221" stroke="#292929" stroke-width="1.02845" stroke-miterlimit="10" stroke-linecap="round" stroke-linejoin="round"/>
</svg>
