<svg width="74" height="85" viewBox="0 0 74 85" fill="none" xmlns="http://www.w3.org/2000/svg">
<path d="M72.8244 66.4011L22.7351 79.6071C11.9784 57.0524 5.54413 34.2532 4.67731 11.1283L43.0907 1L56.1628 8.58614C58.0128 32.508 62.632 44.6725 72.8244 66.4011Z" fill="white" stroke="#292929" stroke-width="0.763636" stroke-miterlimit="10" stroke-linecap="round" stroke-linejoin="round"/>
<path d="M43.0966 1L45.4643 14.0604L56.1687 8.58031" stroke="#292929" stroke-width="0.763636" stroke-miterlimit="10" stroke-linecap="round" stroke-linejoin="round"/>
<path d="M11.8038 21.9316L37.0288 15.1775" stroke="#292929" stroke-width="0.763636" stroke-miterlimit="10" stroke-linecap="round" stroke-linejoin="round"/>
<path d="M12.3856 27.4641L37.6106 20.71" stroke="#292929" stroke-width="0.763636" stroke-miterlimit="10" stroke-linecap="round" stroke-linejoin="round"/>
<path d="M13.5317 32.217L38.7567 25.4571" stroke="#292929" stroke-width="0.763636" stroke-miterlimit="10" stroke-linecap="round" stroke-linejoin="round"/>
<path d="M14.8174 37.5983L40.0424 30.8442" stroke="#292929" stroke-width="0.763636" stroke-miterlimit="10" stroke-linecap="round" stroke-linejoin="round"/>
<path d="M16.8477 42.7644L42.0669 36.0043" stroke="#292929" stroke-width="0.763636" stroke-miterlimit="10" stroke-linecap="round" stroke-linejoin="round"/>
<path d="M4.68314 15.1775L0 16.434C0 16.434 3.60107 42.2175 8.10969 56.744C12.3682 70.4851 18.9711 85 18.9711 85L71.3874 71.7068L69.1477 67.3785L22.7351 79.6129L15.9692 63.8997L11.798 51.8513L8.66818 40.3094L5.74194 24.0957L4.68314 15.1775Z" fill="#292929"/>
</svg>
