<svg width="178" height="15" viewBox="0 0 178 15" fill="none" xmlns="http://www.w3.org/2000/svg">
<path d="M9.84794 5.7093H4.65851V0.825581H0.588379V13.9419H4.65851V8.96512H9.84794V13.9419H13.9181V0.825581H9.84794V5.7093ZM16.5637 13.9419H20.6338V0.825581H16.5637V13.9419ZM29.5372 0.825581H23.2285V13.9419H27.2986V10.1744H29.3337C32.946 10.1744 35.5915 8.54651 35.5915 5.43023V5.38372C35.5407 2.5 33.2003 0.825581 29.5372 0.825581ZM31.5214 5.61628C31.5214 6.63953 30.6056 7.33721 29.232 7.33721H27.2986V3.84884H29.232C30.6565 3.84884 31.5214 4.45349 31.5214 5.61628ZM43.5283 0.825581H37.2705V13.9419H41.3406V10.1744H43.3757C46.9879 10.1744 49.6335 8.54651 49.6335 5.43023V5.38372C49.5826 2.5 47.1914 0.825581 43.5283 0.825581ZM45.5634 5.61628C45.5634 6.63953 44.6476 7.33721 43.2739 7.33721H41.2897V3.84884H43.223C44.6476 3.84884 45.5634 4.45349 45.5634 5.61628ZM57.1633 5.61628L54.1615 0.825581H49.5318L55.0773 9.05814V13.9884H59.1474V8.96512L64.693 0.825581H60.165L57.1633 5.61628ZM78.7859 8.9186H81.6349V10.5C81.0753 10.8721 80.3121 11.0581 79.2946 11.0581C77.0052 11.0581 75.3262 9.52326 75.3262 7.38372V7.33721C75.3262 5.33721 76.9543 3.75581 79.0402 3.75581C80.5157 3.75581 81.5332 4.22093 82.5507 5.01163L84.9419 2.40698C83.4156 1.19767 81.5841 0.5 79.0402 0.5C74.5122 0.5 71.2052 3.52326 71.2052 7.33721V7.38372C71.2052 11.3837 74.5631 14.1744 79.142 14.1744C81.7876 14.1744 83.9244 13.2907 85.5016 12.1279V6.26744H78.7859V8.9186ZM96.9488 5.7093H91.7594V0.825581H87.6893V13.9419H91.7594V8.96512H96.9488V13.9419H101.019V0.825581H96.9488V5.7093ZM127.068 5.75581C125.033 5.33721 124.524 5.05814 124.524 4.5V4.45349C124.524 3.98837 124.982 3.61628 125.999 3.61628C127.271 3.61628 128.747 4.03488 130.07 4.9186L132.105 2.36047C130.527 1.19767 128.594 0.593023 126.101 0.593023C122.591 0.593023 120.454 2.36047 120.454 4.77907V4.82558C120.454 7.52326 122.845 8.31395 125.949 8.9186C127.933 9.33721 128.441 9.61628 128.441 10.1744V10.2209C128.441 10.7791 127.882 11.1047 126.763 11.1047C125.084 11.1047 123.506 10.5465 122.031 9.52326L119.792 11.9419C121.624 13.3837 124.066 14.1279 126.61 14.1279C130.171 14.1279 132.512 12.5465 132.512 9.84884C132.461 7.38372 130.426 6.40698 127.068 5.75581ZM133.224 3.98837H137.599V13.9419H141.669V3.98837H146.045V0.825581H133.275V3.98837H133.224ZM153.676 5.75581C151.641 5.33721 151.132 5.05814 151.132 4.5V4.45349C151.132 3.98837 151.59 3.61628 152.608 3.61628C153.88 3.61628 155.355 4.03488 156.678 4.9186L158.713 2.36047C157.136 1.19767 155.203 0.593023 152.71 0.593023C149.199 0.593023 147.062 2.36047 147.062 4.77907V4.82558C147.062 7.52326 149.454 8.31395 152.557 8.9186C154.541 9.33721 155.05 9.61628 155.05 10.1744V10.2209C155.05 10.7791 154.49 11.1047 153.371 11.1047C151.692 11.1047 150.115 10.5465 148.64 9.52326L146.401 11.9419C148.233 13.3837 150.675 14.1279 153.218 14.1279C156.78 14.1279 159.12 12.5465 159.12 9.84884C159.069 7.38372 156.983 6.40698 153.676 5.75581ZM168.583 2.73256L166.904 0.77907H165.836V4.5H166.955V2.40698L168.736 4.45349H169.753V0.732558H168.634V2.73256H168.583ZM170.466 4.45349H171.585V3.15116H173.518V2.26744H171.585V1.66279H173.722V0.732558H170.415V4.45349H170.466ZM174.027 0.732558V1.61628H175.248V4.40698H176.367V1.61628H177.588V0.732558H174.027ZM115.773 2.22093H114.908V1.38372H114.043V0.593023H107.836V1.43023H106.921V2.26744H106.056V3.10465H105.191V14.5H106.056V13.6628H106.921V12.8256H107.786V13.6628H108.65V14.5H109.515V13.6628H110.38V12.8256H111.245V13.6628H112.11V14.5H112.975V13.6628H113.84V12.8256H114.705V13.6628H115.57V14.5H116.435V3.05814H115.57V2.22093H115.773ZM109.566 6.63953H108.701V7.43023H107.836V6.63953H106.972V5.84884H107.836V5.05814H108.701V5.84884H109.566V6.63953ZM114.908 6.63953H114.043V7.43023H113.178V6.63953H112.314V5.84884H113.178V5.05814H114.043V5.84884H114.908V6.63953Z" fill="white"/>
</svg>
