<svg width="662" height="438" viewBox="0 0 662 438" fill="none" xmlns="http://www.w3.org/2000/svg">
<path d="M212.623 436.093L80.4288 407.002C78.7833 406.637 77.6113 405.18 77.6113 403.492V308.41C77.6113 306.157 79.6637 304.463 81.8739 304.882L214.069 330.136C215.763 330.457 216.983 331.939 216.983 333.664V432.583C216.983 434.879 214.864 436.585 212.623 436.093Z" stroke="#292929" stroke-width="1.82162" stroke-miterlimit="10" stroke-linecap="round" stroke-linejoin="round"/>
<path d="M373.095 153.955L372.937 136.346C372.919 134.063 374.983 132.326 377.23 132.733L393.442 135.69" stroke="#292929" stroke-width="1.82162" stroke-miterlimit="10" stroke-linecap="round" stroke-linejoin="round"/>
<path d="M456.999 147.179L486.63 152.668C488.349 152.983 489.606 154.471 489.618 156.22L490.346 242.115L373.629 217.469L373.52 204.766" stroke="#292929" stroke-width="1.82162" stroke-miterlimit="10" stroke-linecap="round" stroke-linejoin="round"/>
<path d="M216.309 435.03L266.726 392.004C269.166 389.921 270.514 386.824 270.375 383.618L270.332 382.701L217.129 370.758" stroke="#292929" stroke-width="1.82162" stroke-miterlimit="10" stroke-linecap="round" stroke-linejoin="round"/>
<path d="M270.338 382.695L217.092 427.331" stroke="#292929" stroke-width="1.82162" stroke-miterlimit="10" stroke-linecap="round" stroke-linejoin="round"/>
<path d="M374.559 436.093L506.754 407.002C508.399 406.637 509.571 405.18 509.571 403.492V308.41C509.571 306.157 507.519 304.463 505.309 304.882L373.114 330.136C371.42 330.457 370.2 331.939 370.2 333.664V432.583C370.194 434.879 372.319 436.585 374.559 436.093Z" stroke="#292929" stroke-width="1.82162" stroke-miterlimit="10" stroke-linecap="round" stroke-linejoin="round"/>
<path d="M370.867 435.03L320.451 392.004C318.01 389.921 316.662 386.824 316.801 383.618L316.844 382.701L370.047 370.758" stroke="#292929" stroke-width="1.82162" stroke-miterlimit="10" stroke-linecap="round" stroke-linejoin="round"/>
<path d="M316.838 382.695L370.084 427.331" stroke="#292929" stroke-width="1.82162" stroke-miterlimit="10" stroke-linecap="round" stroke-linejoin="round"/>
<path d="M320.28 256.324C320.305 259.354 322.381 261.989 325.326 262.718L437.477 290.552C442.389 291.772 447.581 290.327 451.157 286.745L487.304 250.549C488.495 249.426 489.29 247.95 489.581 246.341L490.346 242.115L445.747 284.255C444.138 285.779 441.861 286.374 439.706 285.846L320.28 256.324ZM320.28 256.324L373.623 217.469" stroke="#292929" stroke-width="1.82162" stroke-miterlimit="10" stroke-linecap="round" stroke-linejoin="round"/>
<path fill-rule="evenodd" clip-rule="evenodd" d="M228.981 141.615C228.981 141.616 228.981 141.615 228.981 141.615L229.188 166.213C229.192 166.716 228.788 167.127 228.285 167.131C227.782 167.136 227.371 166.731 227.366 166.228L227.16 141.63C227.146 139.918 225.575 138.639 223.896 138.976L114.852 160.769C113.569 161.024 112.646 162.157 112.659 163.466L112.659 163.468L113.378 248.231L227.846 222.021L227.755 211.362C227.751 210.859 228.155 210.448 228.658 210.443C229.161 210.439 229.572 210.843 229.576 211.346L229.674 222.738C229.677 223.165 229.383 223.538 228.966 223.633L112.68 250.259C112.411 250.321 112.129 250.257 111.912 250.086C111.696 249.915 111.568 249.655 111.566 249.379L110.838 163.485C110.838 163.485 110.838 163.485 110.838 163.485C110.815 161.297 112.357 159.407 114.497 158.982C114.497 158.982 114.497 158.982 114.498 158.982L223.538 137.19" fill="#292929"/>
<path d="M282.755 260.684C282.779 263.713 280.752 266.379 277.819 267.162L166.154 296.897C161.26 298.203 156.044 296.843 152.406 293.321L115.646 257.745C114.438 256.64 113.618 255.176 113.296 253.573L112.464 249.365L157.774 290.74C159.414 292.234 161.697 292.799 163.84 292.228L282.755 260.684ZM282.755 260.684L228.763 222.739" stroke="#292929" stroke-width="1.82162" stroke-miterlimit="10" stroke-linecap="round" stroke-linejoin="round"/>
<path d="M347.757 236.778C339.165 236.401 330.421 236.207 321.556 236.207C298.118 236.207 275.517 237.561 254.271 240.075L282.755 260.684L282.106 264.527L278.845 267.005L272.19 268.832L166.16 296.897L159.954 297.413L156.171 295.325L133.219 274.674C115.786 284.717 103.824 296.235 98.9302 308.635L212.544 329.516L216.2 331.605L217.244 335.388L217.116 369.974L221.033 371.669L269.451 382.501L270.362 385.112L269.057 389.417L254.623 402.551C275.772 405.034 298.251 406.376 321.562 406.376C326.59 406.376 331.581 406.316 336.523 406.194L318.908 390.334L316.82 386.029L318.514 382.112L370.327 370.236L370.199 333.664L372.415 330.694L503.699 305.246L508.921 305.635L509.705 309.418L509.808 367.965C533.106 354.564 546.665 338.527 546.665 321.295C546.665 297.195 520.16 275.439 477.571 259.955L453.07 284.887L448.504 289.453L440.932 291.019L434.666 289.975L325.958 262.961L321.258 259.961L320.87 255.917L347.757 236.778Z" fill="#292929"/>
<path d="M517.489 210.498L559.781 170.55L574.481 180.156L517.489 210.498Z" stroke="#292929" stroke-width="1.82162" stroke-miterlimit="10" stroke-linecap="round" stroke-linejoin="round"/>
<path d="M517.489 210.498L604.41 199.647L584.372 186.629L517.489 210.498Z" stroke="#292929" stroke-width="1.82162" stroke-miterlimit="10" stroke-linecap="round" stroke-linejoin="round"/>
<path d="M574.481 180.156L575.058 189.95" stroke="#292929" stroke-width="1.82162" stroke-miterlimit="10" stroke-linecap="round" stroke-linejoin="round"/>
<path d="M557.498 205.561L592.26 207.14L591.914 201.621" stroke="#292929" stroke-width="1.82162" stroke-miterlimit="10" stroke-linecap="round" stroke-linejoin="round"/>
<path d="M518.709 381.851C542.724 377.674 560.928 369.659 573.273 357.672C585.617 345.686 592.132 325.855 583.71 310.857C580.013 304.269 573.977 299.381 569.052 293.655C564.128 287.929 560.127 280.418 561.851 273.065C563.254 267.065 568.19 262.505 573.491 259.36C577.918 256.731 582.988 254.775 588.107 255.279C593.225 255.783 598.296 259.275 599.346 264.315C600.396 269.354 596.067 275.159 590.96 274.528C586.024 273.921 583.164 267.818 584.652 263.07C586.139 258.322 590.712 255.116 595.46 253.652C600.208 252.189 605.266 252.134 610.209 251.588C623.027 250.167 635.062 244.228 644.158 235.09C659.137 220.031 668.015 197.583 653.916 181.401C637.849 162.954 610.063 161.563 588.143 177.223" stroke="#292929" stroke-width="1.82162" stroke-miterlimit="10" stroke-linecap="round" stroke-linejoin="round"/>
<path d="M380.843 211.743C359.379 191.614 323.444 146.274 311.185 118.992C310.875 118.306 310.863 117.523 311.154 116.824C311.932 114.96 313.99 111.335 318.739 109.301C323.56 107.237 328.879 107.437 331.386 107.698C332.273 107.789 333.056 108.299 333.499 109.07C337.167 115.482 363.775 153.293 409.376 181.971" stroke="#292929" stroke-width="1.82162" stroke-miterlimit="10" stroke-linecap="round" stroke-linejoin="round"/>
<path d="M403.092 139.346C399.989 148.684 399.77 158.521 402.6 167.672C404.543 173.956 407.627 180.168 412.613 185.02C422.838 194.972 433.804 188.39 438.164 181.206C442.779 173.592 445.444 165.947 446.106 157.604" stroke="#292929" stroke-width="1.82562" stroke-miterlimit="10" stroke-linecap="round" stroke-linejoin="round"/>
<path d="M302.423 111.135C284.553 151.368 244.653 205.13 206.703 227.451" stroke="#292929" stroke-width="1.82162" stroke-miterlimit="10" stroke-linecap="round" stroke-linejoin="round"/>
<path d="M150.882 197.735C137.688 205.932 122.757 216.679 117.589 231.325" stroke="#292929" stroke-width="1.82162" stroke-miterlimit="10" stroke-linecap="round" stroke-linejoin="round"/>
<path d="M392.034 214.281L483.583 233.772L482.884 195.488" stroke="#292929" stroke-width="1.82162" stroke-miterlimit="10" stroke-linecap="round" stroke-linejoin="round"/>
<path d="M287.286 94.036C287.838 86.3305 288.955 75.5405 289.119 73.6764C289.854 65.2423 297.742 67.8047 297.554 74.9576C297.371 82.1105 298.471 100.084 293.704 107.237" stroke="#292929" stroke-width="1.82162" stroke-miterlimit="10" stroke-linecap="round" stroke-linejoin="round"/>
<path d="M293.886 68.3573C294.438 62.1213 294.62 57.3548 294.985 52.2178C295.349 47.0808 288.348 44.9617 286.18 51.4831C284.189 57.4823 279.167 90.6357 280.551 105.105" stroke="#292929" stroke-width="1.82162" stroke-miterlimit="10" stroke-linecap="round" stroke-linejoin="round"/>
<path d="M280.375 96.222C279.076 95.7787 277.728 95.3294 276.368 95.4872C275.008 95.6451 273.635 96.5984 273.471 97.9646C273.332 99.1426 274.091 100.23 274.892 101.098C277.971 104.444 282.154 106.557 286.399 108.196C289.811 109.514 293.321 110.576 296.831 111.633C298.737 112.21 301.142 112.653 302.429 111.135C303.844 109.471 302.587 106.793 300.765 105.591C298.944 104.389 298.191 103.933 295.762 102.525" stroke="#292929" stroke-width="1.82162" stroke-miterlimit="10" stroke-linecap="round" stroke-linejoin="round"/>
<path d="M312.272 91.1639C311.367 86.8163 308.768 74.9819 308.046 72.0855C306.868 67.3858 300.152 65.8799 300.535 75.583C301.069 89.1662 302.866 98.6751 305.945 105.968C307.402 109.423 310.796 112.975 313.468 112.55" stroke="#292929" stroke-width="1.82162" stroke-miterlimit="10" stroke-linecap="round" stroke-linejoin="round"/>
<path d="M303.516 68.5941C302.678 58.9092 301.834 58.053 301.598 51.0762C301.349 43.7716 308.003 44.2512 309.364 49.9408C311.252 57.8405 312.916 64.4044 314.98 75.0548" stroke="#292929" stroke-width="1.82162" stroke-miterlimit="10" stroke-linecap="round" stroke-linejoin="round"/>
<path d="M305.957 44.7795C305.708 37.4748 312.363 37.9545 313.723 43.644C315.612 51.5438 317.275 58.1076 319.34 68.758" stroke="#292929" stroke-width="1.82162" stroke-miterlimit="10" stroke-linecap="round" stroke-linejoin="round"/>
<path d="M314.263 44.5184C316.473 45.1378 318.234 46.8865 319.346 48.8964C320.457 50.9062 323.796 63.6454 324.252 65.8981C326.377 76.4028 332.364 96.9202 329.128 107.067" stroke="#292929" stroke-width="1.82162" stroke-miterlimit="10" stroke-linecap="round" stroke-linejoin="round"/>
<path d="M292.695 47.269C293.272 45.2592 293.485 44.5913 293.885 43.5104C295.355 39.5697 302.228 38.5556 300.577 47.1779C299.678 51.8777 299.478 57.8162 298.561 63.0442" stroke="#292929" stroke-width="1.82162" stroke-miterlimit="10" stroke-linecap="round" stroke-linejoin="round"/>
<path d="M413.013 127.038C417.251 121.512 422.801 117.007 429.079 114.001C431.696 112.744 434.915 111.754 437.277 114.062C437.726 114.499 438.078 115.039 438.315 115.622C439.408 118.3 438.43 121.075 436.76 123.158C436.463 123.03 436.159 122.903 435.862 122.775C438.752 121.506 441.788 120.207 444.94 120.389C448.097 120.571 451.376 122.751 451.673 125.896C451.995 129.278 448.279 132.253 444.964 131.501C446.464 129.096 450.55 129.321 452.111 131.689C453.671 134.057 452.657 137.56 450.295 139.121C448.959 140.001 447.338 140.311 445.741 140.147C444.108 139.977 444.284 137.457 445.929 137.53C447.86 137.621 449.664 138.757 450.429 140.56C452.766 146.086 439.918 152.51 438.351 141.696" stroke="#292929" stroke-width="1.82162" stroke-miterlimit="10" stroke-linecap="round" stroke-linejoin="round"/>
<path d="M427.137 125.374C425.619 126.564 424.483 128.343 424.404 130.274C424.325 132.205 425.461 134.209 427.282 134.852C429.104 135.49 431.429 134.421 431.861 132.539C430.61 134.294 432.055 137.105 434.186 137.384C436.324 137.664 438.358 135.684 438.449 133.535" stroke="#292929" stroke-width="1.82162" stroke-miterlimit="10" stroke-linecap="round" stroke-linejoin="round"/>
<path d="M424.871 115.525C421.684 115.088 416.571 115.889 413.523 116.758C412.63 117.013 411.713 117.353 411.203 117.978C410.305 119.089 411.379 120.814 413.037 120.935C409.37 120.358 405.447 120.856 402.198 122.314C401.203 122.757 400.243 123.315 399.672 124.099C398.701 125.429 399.059 127.159 400.067 128.471C401.075 129.782 402.636 130.76 404.16 131.713C401.421 131.567 398.476 131.452 396.126 132.575C393.776 133.699 392.617 136.577 394.621 138.058C396.272 139.285 399.314 139.072 401.53 138.823C405.417 138.386 408.356 137.324 411.465 136.492" stroke="#292929" stroke-width="2.0515" stroke-miterlimit="10" stroke-linecap="round" stroke-linejoin="round"/>
<path d="M410.809 135.077C411.75 137.542 418.096 139.825 420.676 139.473C423.263 139.121 425.722 137.348 426.445 134.84" stroke="#292929" stroke-width="1.82162" stroke-miterlimit="10" stroke-linecap="round" stroke-linejoin="round"/>
<path d="M424.143 175.784C423.305 178.523 420.269 180.599 418.016 179.962C415.763 179.324 412.806 175.547 412.43 172.457L424.143 175.784Z" stroke="#292929" stroke-width="1.82562" stroke-miterlimit="10" stroke-linecap="round" stroke-linejoin="round"/>
<path d="M418.836 166.518C417.701 166.901 416.486 165.856 416.231 164.684C415.976 163.512 416.389 162.31 416.796 161.181C417.98 157.884 419.219 154.611 420.354 151.295C421.119 149.061 414.847 145.144 409.68 147.962" stroke="#292929" stroke-width="2.0515" stroke-miterlimit="10" stroke-linecap="round" stroke-linejoin="round"/>
<path d="M425.363 150.494C426.893 149.152 429 148.49 431.029 148.721C433.057 148.952 434.957 150.075 436.141 151.733" stroke="#292929" stroke-width="2.0515" stroke-miterlimit="10" stroke-linecap="round" stroke-linejoin="round"/>
<path d="M427.884 155.358C427.732 155.455 428.084 155.655 428.09 155.473C428.388 155.376 428.63 155.886 428.369 156.056C428.108 156.226 427.738 155.795 427.95 155.564" stroke="#292929" stroke-width="2.0515" stroke-miterlimit="10" stroke-linecap="round" stroke-linejoin="round"/>
<path d="M411.082 153.135C411.094 153.342 411.1 153.543 411.113 153.749C411.259 153.652 411.404 153.549 411.55 153.451" stroke="#292929" stroke-width="2.0515" stroke-miterlimit="10" stroke-linecap="round" stroke-linejoin="round"/>
<path d="M452.548 133.917C455.694 134.458 457.934 137.591 458.244 140.76C458.554 143.936 457.29 147.075 455.584 149.771C455.281 150.251 454.916 150.755 454.37 150.913C453.823 151.065 453.107 150.621 453.235 150.069C453.399 149.358 454.479 149.492 455.068 149.917C457.23 151.472 457.904 154.72 456.635 157.064C455.366 159.408 452.384 160.628 449.81 159.96C447.229 159.292 444.564 155.862 444.296 153.214" stroke="#292929" stroke-width="1.82562" stroke-miterlimit="10" stroke-linecap="round" stroke-linejoin="round"/>
<path d="M444.187 167.921C443.859 168.273 443.72 170.052 444.096 170.344C444.473 170.641 445.019 170.647 445.462 170.465C445.906 170.283 446.264 169.943 446.586 169.591C448.796 167.137 449.573 163.749 450.265 160.519" stroke="#292929" stroke-width="1.82562" stroke-miterlimit="10" stroke-linecap="round" stroke-linejoin="round"/>
<path d="M440.859 186.544C457.102 192.343 470.127 206.442 474.62 223.085" stroke="#292929" stroke-width="1.82562" stroke-miterlimit="10" stroke-linecap="round" stroke-linejoin="round"/>
<path d="M273.465 97.9647C263.319 123.206 237.227 175.268 195.506 182.676" stroke="#292929" stroke-width="1.82162" stroke-miterlimit="10" stroke-linecap="round" stroke-linejoin="round"/>
<path d="M191.159 148.946C192.452 155.765 200.012 167.866 201.578 170.841C203.145 173.817 198.445 179.616 194.055 173.033" stroke="#292929" stroke-width="1.82162" stroke-miterlimit="10" stroke-linecap="round" stroke-linejoin="round"/>
<path d="M196.721 176.64C196.878 182.439 193.666 193.174 175.802 191.608" stroke="#292929" stroke-width="1.82162" stroke-miterlimit="10" stroke-linecap="round" stroke-linejoin="round"/>
<path d="M173.999 156.268L195.312 152.036C195.312 152.036 192.336 134.488 169.299 137.463C157.471 138.993 148.46 150.154 148.144 161.594C147.998 166.834 143.566 174.23 138.016 180.065C133.225 185.099 135.417 193.435 142.023 195.603C147.634 197.449 153.105 199.016 155.983 199.198C163.348 199.665 168.989 198.099 171.655 192.458C174.321 186.817 167.423 186.501 167.113 181.959C166.797 177.417 173.537 176.944 173.537 172.244C173.537 167.544 167.271 168.17 167.58 163.47C167.89 158.77 170.556 157.21 173.999 156.268Z" fill="#292929"/>
<path d="M189.265 161.952C189.138 161.994 189.016 162.037 188.888 162.08C188.949 162.22 189.138 162.28 189.265 162.213" stroke="#292929" stroke-width="1.82162" stroke-miterlimit="10" stroke-linecap="round" stroke-linejoin="round"/>
<path d="M186.417 179.306C186.823 180.429 187.759 181.34 188.876 181.698C189.993 182.05 191.268 181.838 192.221 181.146" stroke="#292929" stroke-width="1.82162" stroke-miterlimit="10" stroke-linecap="round" stroke-linejoin="round"/>
<path d="M184.243 191.662C183.15 195.609 182.98 199.131 182.075 203.12C181.577 205.312 173.216 210.638 165.535 206.254C157.854 201.864 158.795 197.322 158.795 197.322" stroke="#292929" stroke-width="1.82162" stroke-miterlimit="10" stroke-linecap="round" stroke-linejoin="round"/>
<path d="M312.63 26.8184C315.788 17.9532 319.589 9.31871 323.991 1" stroke="#292929" stroke-width="1.82162" stroke-miterlimit="10" stroke-linecap="round" stroke-linejoin="round"/>
<path d="M283.186 8.41394C288.074 14.9778 292.422 21.9425 296.18 29.2107" stroke="#292929" stroke-width="1.82162" stroke-miterlimit="10" stroke-linecap="round" stroke-linejoin="round"/>
<path d="M327.233 32.1314C338.291 26.5087 349.081 20.3577 359.549 13.7088" stroke="#292929" stroke-width="1.82162" stroke-miterlimit="10" stroke-linecap="round" stroke-linejoin="round"/>
<path d="M256.736 34.6574C263.628 34.9732 270.526 35.295 277.418 35.6107" stroke="#292929" stroke-width="1.82162" stroke-miterlimit="10" stroke-linecap="round" stroke-linejoin="round"/>
<path d="M262.96 64.3983C266.931 60.4271 270.902 56.456 274.867 52.491" stroke="#292929" stroke-width="1.82162" stroke-miterlimit="10" stroke-linecap="round" stroke-linejoin="round"/>
<path d="M68.7823 239.79H9.84687C4.95887 239.79 1 243.749 1 248.637V275.135C1 280.023 4.95887 283.982 9.84687 283.982H28.804L55.3754 313.911L47.7489 283.982H68.7823C73.6703 283.982 77.6294 280.023 77.6294 275.135V248.637C77.6294 243.749 73.6703 239.79 68.7823 239.79Z" stroke="#292929" stroke-width="1.82162" stroke-miterlimit="10" stroke-linecap="round" stroke-linejoin="round"/>
<path d="M21.475 265.037C23.3563 265.037 24.8813 263.512 24.8813 261.631C24.8813 259.749 23.3563 258.224 21.475 258.224C19.5937 258.224 18.0684 259.749 18.0684 261.631C18.0684 263.512 19.5937 265.037 21.475 265.037Z" fill="#292929"/>
<path d="M38.3975 265.037C40.2789 265.037 41.8042 263.512 41.8042 261.631C41.8042 259.749 40.2789 258.224 38.3975 258.224C36.5162 258.224 34.9912 259.749 34.9912 261.631C34.9912 263.512 36.5162 265.037 38.3975 265.037Z" fill="#292929"/>
<path d="M54.9376 265.037C56.8189 265.037 58.3439 263.512 58.3439 261.631C58.3439 259.749 56.8189 258.224 54.9376 258.224C53.0563 258.224 51.5312 259.749 51.5312 261.631C51.5312 263.512 53.0563 265.037 54.9376 265.037Z" fill="#292929"/>
<path fill-rule="evenodd" clip-rule="evenodd" d="M446.154 381.983C453.048 381.622 458.344 375.74 457.983 368.846C457.621 361.952 451.74 356.656 444.846 357.017C437.952 357.378 432.656 363.26 433.017 370.154C433.378 377.048 439.26 382.344 446.154 381.983ZM445.319 365.651L439.763 368.964L445.032 360.169L451.151 368.367L445.319 365.651ZM445.38 366.615L450.959 369.313L445.688 372.49L440.053 369.885L445.38 366.615ZM446.015 378.908L451.279 370.203L445.721 373.304L439.83 370.803L446.015 378.908Z" fill="#292929"/>
<path d="M203.46 281.001L190.964 269.427L223.401 260.963L236.972 272.069" stroke="#292929" stroke-width="1.82162" stroke-miterlimit="10" stroke-linecap="round" stroke-linejoin="round"/>
<path d="M373.945 222.709L347.623 242.139L441.011 263.41" stroke="#292929" stroke-width="1.82162" stroke-miterlimit="10" stroke-linecap="round" stroke-linejoin="round"/>
<path d="M88.7778 379.799L103.508 401.422" stroke="#292929" stroke-width="1.82162" stroke-miterlimit="10" stroke-linecap="round" stroke-linejoin="round"/>
<path d="M84.3877 359.743L116.983 406.753" stroke="#292929" stroke-width="1.82162" stroke-miterlimit="10" stroke-linecap="round" stroke-linejoin="round"/>
</svg>
