<svg width="573" height="462" viewBox="0 0 573 462" fill="none" xmlns="http://www.w3.org/2000/svg">
<path d="M341.041 441.29L349.387 429.284H340.892L341.041 441.29Z" fill="#292929"/>
<path d="M460.084 140.003V127.195H486.669L493.816 133.716H535.772V179.692L529.558 140.003H460.084Z" fill="#292929"/>
<path d="M36.3655 252.308C43.8698 252.308 49.9532 246.229 49.9532 238.729C49.9532 231.23 43.8698 225.15 36.3655 225.15C28.8613 225.15 22.7779 231.23 22.7779 238.729C22.7779 246.229 28.8613 252.308 36.3655 252.308Z" stroke="#292929" stroke-width="1.94266" stroke-miterlimit="10" stroke-linecap="round" stroke-linejoin="round"/>
<path d="M378.992 145.462C380.055 147.793 380.657 150.442 380.657 153.246C380.657 162.584 374.003 170.147 365.793 170.147C357.584 170.147 350.929 162.577 350.929 153.246C350.929 150.442 351.532 147.793 352.594 145.462" stroke="#292929" stroke-width="1.94266" stroke-miterlimit="10" stroke-linecap="round" stroke-linejoin="round"/>
<path d="M29.0435 250.838C23.4905 251.551 12.8964 264.042 13.0066 274.26" stroke="#292929" stroke-width="1.94266" stroke-miterlimit="10" stroke-linecap="round" stroke-linejoin="round"/>
<path d="M43.7846 250.838C49.3376 251.551 59.9317 264.042 59.8215 274.26" stroke="#292929" stroke-width="1.94266" stroke-miterlimit="10" stroke-linecap="round" stroke-linejoin="round"/>
<path d="M352.594 145.469H378.986" stroke="#292929" stroke-width="1.94266" stroke-miterlimit="10" stroke-linecap="round" stroke-linejoin="round"/>
<path d="M365.417 135.853C364.232 131.65 355.905 132.667 351.894 136.707C347.21 141.428 342.195 151.536 343.536 165.983H355.575" stroke="#292929" stroke-width="1.94266" stroke-miterlimit="10" stroke-linecap="round" stroke-linejoin="round"/>
<path d="M365.417 135.853C366.603 131.65 374.929 132.667 378.94 136.707C383.625 141.428 388.64 151.536 387.299 165.983H375.908" stroke="#292929" stroke-width="1.94266" stroke-miterlimit="10" stroke-linecap="round" stroke-linejoin="round"/>
<path d="M360.402 162.189C361.905 163.943 367.173 164.818 370.057 162.189" stroke="#292929" stroke-width="1.94266" stroke-miterlimit="10" stroke-linecap="round" stroke-linejoin="round"/>
<path d="M341.91 182.981C347.126 173.598 358.588 170.147 365.787 170.147C372.124 170.147 384.117 173.793 389.994 182.671" stroke="#292929" stroke-width="1.94266" stroke-miterlimit="10" stroke-linecap="round" stroke-linejoin="round"/>
<path d="M547.513 278.593C548.575 280.924 549.178 283.572 549.178 286.376C549.178 295.714 542.523 303.277 534.314 303.277C526.104 303.277 519.45 295.707 519.45 286.376C519.45 283.572 520.052 280.924 521.115 278.593" stroke="#292929" stroke-width="1.94266" stroke-miterlimit="10" stroke-linecap="round" stroke-linejoin="round"/>
<path d="M528.923 295.312C530.426 297.067 535.694 297.941 538.577 295.312" stroke="#292929" stroke-width="1.94266" stroke-miterlimit="10" stroke-linecap="round" stroke-linejoin="round"/>
<path d="M512.16 313.489C517.376 304.106 527.108 303.277 534.307 303.277C540.644 303.277 551.938 305.932 557.815 314.81" stroke="#292929" stroke-width="1.94266" stroke-miterlimit="10" stroke-linecap="round" stroke-linejoin="round"/>
<path d="M234.699 72.3926C235.761 74.7238 236.364 77.3722 236.364 80.1761C236.364 89.5138 229.709 97.0772 221.5 97.0772C213.29 97.0772 206.636 89.5074 206.636 80.1761C206.636 77.3722 207.238 74.7238 208.301 72.3926" stroke="#292929" stroke-width="1.94266" stroke-miterlimit="10" stroke-linecap="round" stroke-linejoin="round"/>
<path d="M199.352 107.296C204.568 97.9126 214.301 97.0837 221.5 97.0837C227.837 97.0837 238.146 99.3048 244.023 108.189" stroke="#292929" stroke-width="1.94266" stroke-miterlimit="10" stroke-linecap="round" stroke-linejoin="round"/>
<path d="M33.3589 244.195C34.0199 245.198 38.3806 245.529 39.3785 244.195" stroke="#292929" stroke-width="1.94266" stroke-miterlimit="10" stroke-linecap="round" stroke-linejoin="round"/>
<path d="M519.113 281.377C515.892 282.122 515.938 277.025 516.715 275.083C517.687 272.635 524.128 266.697 527.096 268.802C526.564 267.345 526.7 266.036 527.841 264.91C529.836 262.928 533.633 261.672 536.258 260.875C537.152 260.604 538.111 260.196 538.947 260.694C539.614 261.089 539.692 262.086 540.34 262.468C541.202 262.98 543.126 262.514 544.033 262.449C546.333 262.287 548.588 262.041 550.61 263.317C551.536 263.9 552.56 264.787 552.975 265.823C553.105 266.153 553.04 267.189 553.137 267.351C553.655 268.238 555.832 268.484 556.889 269.203C559.772 271.184 561.619 275.905 559.416 279.033C558.003 281.034 555.34 281.681 553.111 282.374" stroke="#292929" stroke-width="1.94266" stroke-miterlimit="10" stroke-linecap="round" stroke-linejoin="round"/>
<path d="M523.998 276.281C526.363 278.016 528.495 278.34 531.573 278.262C534.858 278.178 537.8 277.699 540.683 276.061C541.772 275.439 543.722 274.578 544.234 273.276" stroke="#292929" stroke-width="1.94266" stroke-miterlimit="10" stroke-linecap="round" stroke-linejoin="round"/>
<path d="M526.11 285.761C525.91 285.858 525.8 285.942 525.871 286.195C526.097 286.104 526.214 285.942 526.11 285.761Z" stroke="#292929" stroke-width="1.94266" stroke-miterlimit="10" stroke-linecap="round" stroke-linejoin="round"/>
<path d="M534.326 286.013C534.151 286.201 533.99 286.208 533.977 286.499C534.009 286.57 533.854 286.298 533.841 286.279C533.86 286.363 533.964 286.493 534.074 286.512" stroke="#292929" stroke-width="1.94266" stroke-miterlimit="10" stroke-linecap="round" stroke-linejoin="round"/>
<path d="M39.3784 221.135C29.0435 217.127 15.7928 225.144 14.1211 228.653C13.1686 230.648 14.5358 232.526 15.6827 233.963C17.4775 236.21 16.0714 237.81 13.8036 239.416C11.8144 240.821 7.9655 242.589 8.2506 245.665C8.44498 247.788 10.4277 248.326 11.7625 249.563C12.9742 250.683 13.4861 252.056 12.6308 253.649C11.7755 255.235 7.05188 257.159 8.76897 259.574" stroke="#292929" stroke-width="1.94266" stroke-miterlimit="10" stroke-linecap="round" stroke-linejoin="round"/>
<path d="M45.223 222.845C46.9142 223.156 48.4045 223.958 49.519 224.477C51.2361 225.273 52.9402 226.374 54.2685 227.747C55.4089 228.932 56.491 230.706 56.2513 232.416C55.9726 234.404 54.4564 236.21 56.0245 238.01C57.6832 239.908 60.7222 240.005 62.0375 242.355C63.1909 244.415 62.2578 246.034 60.2232 246.785C58.5515 247.4 55.8042 247.445 55.9856 249.725C56.1929 252.347 59.1606 253.111 61.1433 253.934" stroke="#292929" stroke-width="1.94266" stroke-miterlimit="10" stroke-linecap="round" stroke-linejoin="round"/>
<path d="M205.735 79.6387C205.735 82.7988 206.836 85.4149 204.549 85.4149C202.262 85.4149 199.352 82.8571 199.352 79.697C199.352 76.5369 202.262 73.9791 204.549 73.9791C206.836 73.9791 205.735 76.4851 205.735 79.6387Z" fill="#292929"/>
<path d="M236.305 79.7553C236.305 76.5952 235.204 73.9791 237.491 73.9791C239.778 73.9791 242.688 76.5369 242.688 79.697C242.688 82.8571 239.778 85.4149 237.491 85.4149C235.197 85.4149 236.305 82.9153 236.305 79.7553Z" fill="#292929"/>
<path d="M203.402 79.697C203.402 69.2131 211.45 57.201 221.383 57.201C231.316 57.201 239.364 69.2131 239.364 79.697" stroke="#292929" stroke-width="1.94104" stroke-miterlimit="10" stroke-linecap="round" stroke-linejoin="round"/>
<path d="M222.556 90.2003C226.651 91.3724 233.26 89.365 237.271 83.932" stroke="#292929" stroke-width="1.94266" stroke-miterlimit="10" stroke-linecap="round" stroke-linejoin="round"/>
<path d="M221.824 91.8321C222.944 91.8321 223.852 90.9247 223.852 89.8053C223.852 88.6859 222.944 87.7784 221.824 87.7784C220.704 87.7784 219.796 88.6859 219.796 89.8053C219.796 90.9247 220.704 91.8321 221.824 91.8321Z" fill="#292929"/>
<path d="M219.543 62.1677C217.754 62.3944 216.141 64.2852 214.748 65.3472C213.005 66.6812 212.027 68.1511 210.893 69.9383" stroke="#292929" stroke-width="1.94266" stroke-miterlimit="10" stroke-linecap="round" stroke-linejoin="round"/>
<path d="M222.932 63.0485C221.714 63.3399 220.45 64.5831 219.478 65.3408C217.683 66.746 215.24 68.449 214.275 70.5665" stroke="#292929" stroke-width="1.94266" stroke-miterlimit="10" stroke-linecap="round" stroke-linejoin="round"/>
<path d="M225.562 64.6802C223.327 65.1723 220.664 67.5165 219.167 69.1936" stroke="#292929" stroke-width="1.94266" stroke-miterlimit="10" stroke-linecap="round" stroke-linejoin="round"/>
<path d="M228.698 65.6775C226.709 67.2057 223.942 68.4231 222.303 70.314" stroke="#292929" stroke-width="1.94266" stroke-miterlimit="10" stroke-linecap="round" stroke-linejoin="round"/>
<path d="M230.079 67.808C229.405 68.8311 227.422 70.1456 226.191 70.314" stroke="#292929" stroke-width="1.94266" stroke-miterlimit="10" stroke-linecap="round" stroke-linejoin="round"/>
<path d="M232.716 69.6923C231.698 70.6118 230.403 71.6803 229.204 72.3213" stroke="#292929" stroke-width="1.94266" stroke-miterlimit="10" stroke-linecap="round" stroke-linejoin="round"/>
<path d="M443.205 408.886H180.497C176.758 408.886 173.732 405.862 173.732 402.126V239.908C173.732 236.171 176.758 233.147 180.497 233.147H443.205C446.943 233.147 449.969 236.171 449.969 239.908V402.126C449.969 405.856 446.943 408.886 443.205 408.886Z" stroke="#292929" stroke-width="1.94266" stroke-miterlimit="10" stroke-linecap="round" stroke-linejoin="round"/>
<path d="M181.242 294.205V397.852H326.371" stroke="#292929" stroke-width="1.94266" stroke-miterlimit="10" stroke-linecap="round" stroke-linejoin="round"/>
<path d="M274.023 240.614L441.559 241.112V381.106" stroke="#292929" stroke-width="1.94266" stroke-miterlimit="10" stroke-linecap="round" stroke-linejoin="round"/>
<path d="M281.617 408.886V441.031H295.568" stroke="#292929" stroke-width="1.94266" stroke-miterlimit="10" stroke-linecap="round" stroke-linejoin="round"/>
<path d="M340.341 408.886V441.031" stroke="#292929" stroke-width="1.94266" stroke-miterlimit="10" stroke-linecap="round" stroke-linejoin="round"/>
<path d="M340.341 429.284H365.126C366.292 429.284 367.355 429.932 367.893 430.968L377.029 448.601C378.02 450.511 376.634 452.784 374.482 452.784H248.241C246.103 452.784 244.716 450.53 245.681 448.62L254.617 430.987C255.148 429.938 256.224 429.278 257.397 429.278H281.624" stroke="#292929" stroke-width="1.94266" stroke-miterlimit="10" stroke-linecap="round" stroke-linejoin="round"/>
<path d="M245.37 449.773V452.985C245.37 455.225 247.191 457.045 249.433 457.045H373.29C375.532 457.045 377.353 455.225 377.353 452.985V449.773" stroke="#292929" stroke-width="1.94266" stroke-miterlimit="10" stroke-linecap="round" stroke-linejoin="round"/>
<path d="M251.299 457.051L251.105 458.45C250.943 459.635 251.863 460.69 253.055 460.703L384.156 461.5C387.13 461.519 389.016 458.314 387.545 455.724L378.26 439.36C377.696 438.363 376.64 437.754 375.5 437.754H371.398L377.346 451.741L376.018 456.585L251.299 457.051Z" fill="#292929"/>
<path d="M36.3655 283.061C55.8973 283.061 71.7309 267.237 71.7309 247.717C71.7309 228.198 55.8973 212.374 36.3655 212.374C16.8337 212.374 1 228.198 1 247.717C1 267.237 16.8337 283.061 36.3655 283.061Z" stroke="#292929" stroke-width="1.94266" stroke-miterlimit="10" stroke-linecap="round" stroke-linejoin="round"/>
<path d="M222.18 115.733C241.712 115.733 257.546 99.9095 257.546 80.3899C257.546 60.8703 241.712 45.0465 222.18 45.0465C202.648 45.0465 186.815 60.8703 186.815 80.3899C186.815 99.9095 202.648 115.733 222.18 115.733Z" stroke="#292929" stroke-width="1.94266" stroke-miterlimit="10" stroke-linecap="round" stroke-linejoin="round"/>
<path d="M365.787 192.254C385.319 192.254 401.152 176.431 401.152 156.911C401.152 137.391 385.319 121.568 365.787 121.568C346.255 121.568 330.421 137.391 330.421 156.911C330.421 176.431 346.255 192.254 365.787 192.254Z" stroke="#292929" stroke-width="1.94266" stroke-miterlimit="10" stroke-linecap="round" stroke-linejoin="round"/>
<path d="M535.772 322.522C555.303 322.522 571.137 306.699 571.137 287.179C571.137 267.659 555.303 251.836 535.772 251.836C516.24 251.836 500.406 267.659 500.406 287.179C500.406 306.699 516.24 322.522 535.772 322.522Z" stroke="#292929" stroke-width="1.94266" stroke-miterlimit="10" stroke-linecap="round" stroke-linejoin="round"/>
<path d="M36.3655 294.205V321.014H159.847" stroke="#292929" stroke-width="1.94266" stroke-miterlimit="10" stroke-linecap="round" stroke-linejoin="round"/>
<path d="M222.18 128.199V221.446" stroke="#292929" stroke-width="1.94266" stroke-miterlimit="10" stroke-linecap="round" stroke-linejoin="round"/>
<path d="M222.18 156.361H316.361" stroke="#292929" stroke-width="1.94266" stroke-miterlimit="10" stroke-linecap="round" stroke-linejoin="round"/>
<path d="M535.772 331.685V356.247H463.907" stroke="#292929" stroke-width="1.94266" stroke-miterlimit="10" stroke-linecap="round" stroke-linejoin="round"/>
<path d="M362.359 73.7978L306.57 88.4972C294.589 63.3916 287.423 38.0141 286.457 12.2739L329.242 1L343.802 9.44407C345.862 36.0779 351.007 49.6182 362.359 73.7978Z" stroke="#292929" stroke-width="1.94266" stroke-miterlimit="10" stroke-linecap="round" stroke-linejoin="round"/>
<path d="M329.248 1L331.879 15.544L343.808 9.44407" stroke="#292929" stroke-width="1.94266" stroke-miterlimit="10" stroke-linecap="round" stroke-linejoin="round"/>
<path d="M460.084 140.003V127.195H486.669L493.816 133.716H535.772V183.7" stroke="#292929" stroke-width="1.94266" stroke-miterlimit="10" stroke-linecap="round" stroke-linejoin="round"/>
<path d="M535.772 183.7L529.558 140.003H454.693L460.084 183.7H535.772Z" stroke="#292929" stroke-width="1.94266" stroke-miterlimit="10" stroke-linecap="round" stroke-linejoin="round"/>
<path d="M463.907 359.258C465.571 359.258 466.92 357.91 466.92 356.247C466.92 354.584 465.571 353.236 463.907 353.236C462.243 353.236 460.894 354.584 460.894 356.247C460.894 357.91 462.243 359.258 463.907 359.258Z" fill="#292929"/>
<path d="M316.361 159.372C318.025 159.372 319.374 158.024 319.374 156.361C319.374 154.698 318.025 153.349 316.361 153.349C314.697 153.349 313.348 154.698 313.348 156.361C313.348 158.024 314.697 159.372 316.361 159.372Z" fill="#292929"/>
<path d="M222.18 131.21C223.844 131.21 225.193 129.862 225.193 128.199C225.193 126.536 223.844 125.188 222.18 125.188C220.516 125.188 219.167 126.536 219.167 128.199C219.167 129.862 220.516 131.21 222.18 131.21Z" fill="#292929"/>
<path d="M222.18 224.457C223.844 224.457 225.193 223.109 225.193 221.446C225.193 219.783 223.844 218.435 222.18 218.435C220.516 218.435 219.167 219.783 219.167 221.446C219.167 223.109 220.516 224.457 222.18 224.457Z" fill="#292929"/>
<path d="M159.847 324.025C161.511 324.025 162.86 322.677 162.86 321.014C162.86 319.351 161.511 318.002 159.847 318.002C158.183 318.002 156.834 319.351 156.834 321.014C156.834 322.677 158.183 324.025 159.847 324.025Z" fill="#292929"/>
<path d="M90.5994 215.974C92.2634 215.974 93.6124 214.626 93.6124 212.963C93.6124 211.3 92.2634 209.952 90.5994 209.952C88.9353 209.952 87.5864 211.3 87.5864 212.963C87.5864 214.626 88.9353 215.974 90.5994 215.974Z" fill="#292929"/>
<path d="M36.3654 297.216C38.0294 297.216 39.3784 295.868 39.3784 294.205C39.3784 292.542 38.0294 291.194 36.3654 291.194C34.7014 291.194 33.3524 292.542 33.3524 294.205C33.3524 295.868 34.7014 297.216 36.3654 297.216Z" fill="#292929"/>
<path d="M535.772 336.529C537.436 336.529 538.784 335.181 538.784 333.518C538.784 331.855 537.436 330.507 535.772 330.507C534.108 330.507 532.759 331.855 532.759 333.518C532.759 335.181 534.108 336.529 535.772 336.529Z" fill="#292929"/>
<path d="M90.5995 212.963L114.179 177.872C114.179 177.872 127.222 198.257 126.885 196.923C126.548 195.589 168.406 130.912 168.406 130.912" stroke="#292929" stroke-width="1.94266" stroke-miterlimit="10" stroke-linecap="round" stroke-linejoin="round"/>
<path d="M158.745 134.855L169.261 129.338L169.883 141.014" stroke="#292929" stroke-width="1.94266" stroke-miterlimit="10" stroke-linecap="round" stroke-linejoin="round"/>
<path d="M294.395 24.299L322.484 16.7809" stroke="#292929" stroke-width="1.94266" stroke-miterlimit="10" stroke-linecap="round" stroke-linejoin="round"/>
<path d="M295.043 30.4636L323.132 22.9391" stroke="#292929" stroke-width="1.94266" stroke-miterlimit="10" stroke-linecap="round" stroke-linejoin="round"/>
<path d="M296.319 35.7476L324.408 28.2295" stroke="#292929" stroke-width="1.94266" stroke-miterlimit="10" stroke-linecap="round" stroke-linejoin="round"/>
<path d="M297.751 41.7439L325.84 34.2194" stroke="#292929" stroke-width="1.94266" stroke-miterlimit="10" stroke-linecap="round" stroke-linejoin="round"/>
<path d="M300.006 47.4877L328.101 39.9696" stroke="#292929" stroke-width="1.94266" stroke-miterlimit="10" stroke-linecap="round" stroke-linejoin="round"/>
<path d="M341.909 380.491H202.864V267.526H420.915V380.491H397.213" stroke="#292929" stroke-width="1.94266" stroke-miterlimit="10" stroke-linecap="round" stroke-linejoin="round"/>
<path d="M416.016 259.004H207.757C205.055 259.004 202.864 261.193 202.864 263.893V267.526H420.915V263.893C420.915 261.193 418.725 259.004 416.016 259.004Z" fill="#292929" stroke="#292929" stroke-width="1.94266" stroke-miterlimit="10" stroke-linecap="round" stroke-linejoin="round"/>
<path d="M209.934 265.713C211.147 265.713 212.13 264.73 212.13 263.517C212.13 262.305 211.147 261.322 209.934 261.322C208.721 261.322 207.737 262.305 207.737 263.517C207.737 264.73 208.721 265.713 209.934 265.713Z" fill="white"/>
<path d="M217.055 265.713C218.268 265.713 219.251 264.73 219.251 263.517C219.251 262.305 218.268 261.322 217.055 261.322C215.842 261.322 214.858 262.305 214.858 263.517C214.858 264.73 215.842 265.713 217.055 265.713Z" fill="white"/>
<path d="M224.895 265.713C226.108 265.713 227.092 264.73 227.092 263.517C227.092 262.305 226.108 261.322 224.895 261.322C223.682 261.322 222.698 262.305 222.698 263.517C222.698 264.73 223.682 265.713 224.895 265.713Z" fill="white"/>
<path d="M342.337 343.989C342.084 343.892 341.838 344.138 341.929 344.39L357.843 388.294C357.94 388.573 358.335 388.553 358.406 388.268L363.013 371.03C363.065 370.81 363.344 370.733 363.506 370.888L386.709 393.837C387.111 394.232 387.752 394.226 388.148 393.824L391.569 390.321C391.958 389.92 391.951 389.279 391.549 388.89L368.119 366.038C367.957 365.882 368.029 365.611 368.242 365.546L384.843 360.553C385.109 360.475 385.122 360.1 384.862 359.996L342.337 343.989Z" fill="#292929"/>
<path d="M272.844 302.338C272.941 302.086 272.695 301.84 272.442 301.93L228.511 317.834C228.232 317.931 228.251 318.326 228.536 318.397L245.785 323.002C246.005 323.053 246.083 323.332 245.928 323.494L222.964 346.683C222.569 347.084 222.575 347.725 222.977 348.12L226.482 351.539C226.884 351.928 227.526 351.921 227.914 351.52L250.781 328.104C250.936 327.942 251.208 328.014 251.273 328.227L256.269 344.818C256.347 345.083 256.723 345.096 256.826 344.837L272.844 302.338Z" stroke="#292929" stroke-width="1.94266" stroke-miterlimit="10" stroke-linecap="round" stroke-linejoin="round"/>
<path d="M108.34 404.464C121.588 404.464 132.328 393.731 132.328 380.491C132.328 367.252 121.588 356.519 108.34 356.519C95.0926 356.519 84.3531 367.252 84.3531 380.491C84.3531 393.731 95.0926 404.464 108.34 404.464Z" stroke="#292929" stroke-width="1.94266" stroke-miterlimit="10" stroke-linecap="round" stroke-linejoin="round"/>
<path d="M108.34 356.525V404.464" stroke="#292929" stroke-width="1.94266" stroke-miterlimit="10" stroke-linecap="round" stroke-linejoin="round"/>
<path d="M84.3531 380.491H132.328" stroke="#292929" stroke-width="1.94266" stroke-miterlimit="10" stroke-linecap="round" stroke-linejoin="round"/>
<path d="M125.259 363.499C123.114 367.993 116.505 371.264 108.684 371.264C100.597 371.264 93.8004 367.767 91.9019 363.04" stroke="#292929" stroke-width="1.84034" stroke-miterlimit="10" stroke-linecap="round" stroke-linejoin="round"/>
<path d="M91.9019 396.415C94.0466 391.921 100.656 388.65 108.477 388.65C116.563 388.65 123.36 392.147 125.259 396.874" stroke="#292929" stroke-width="1.84034" stroke-miterlimit="10" stroke-linecap="round" stroke-linejoin="round"/>
<path d="M108.58 404.464C115.43 404.464 120.982 393.731 120.982 380.491C120.982 367.252 115.43 356.519 108.58 356.519C101.731 356.519 96.1783 367.252 96.1783 380.491C96.1783 393.731 101.731 404.464 108.58 404.464Z" stroke="#292929" stroke-width="1.9106" stroke-miterlimit="10" stroke-linecap="round" stroke-linejoin="round"/>
<path d="M264.99 294.697L269.416 297.553" stroke="#292929" stroke-width="1.94266" stroke-miterlimit="10" stroke-linecap="round" stroke-linejoin="round"/>
<path d="M273.841 289.84L273.278 295.079" stroke="#292929" stroke-width="1.94266" stroke-miterlimit="10" stroke-linecap="round" stroke-linejoin="round"/>
<path d="M277.464 297.417L281.604 294.205" stroke="#292929" stroke-width="1.94266" stroke-miterlimit="10" stroke-linecap="round" stroke-linejoin="round"/>
<path d="M278.112 302.863L282.252 304.76" stroke="#292929" stroke-width="1.94266" stroke-miterlimit="10" stroke-linecap="round" stroke-linejoin="round"/>
<path d="M286.457 16.7809L281.241 18.1796C281.241 18.1796 285.252 46.8791 290.274 63.0485C295.017 78.3436 302.371 94.5001 302.371 94.5001L360.752 79.7035L358.257 74.8857L306.563 88.5037L299.028 71.0133L294.382 57.6026L290.896 44.7551L287.637 26.7079L286.457 16.7809Z" fill="#292929"/>
<path d="M365.268 41.9446C381.681 52.3896 402.085 56.3915 421.232 52.9206C428.515 51.5996 436.077 48.9188 440.483 42.9678C444.883 37.0168 444.416 27.1351 437.963 23.5088C430.582 19.371 420.688 26.7466 420.215 35.1907C419.736 43.6347 426.034 51.1917 433.446 55.2777C440.859 59.3573 449.373 60.8272 457.498 63.1843C485.963 71.4406 503.614 91.9032 511.888 119.729" stroke="#292929" stroke-width="1.94266" stroke-miterlimit="10" stroke-linecap="round" stroke-linejoin="round"/>
<path d="M517.318 195.855C515.665 205.296 509.944 213.481 503.95 220.96C497.95 228.44 491.419 235.712 487.622 244.512C483.825 253.312 483.248 264.217 488.918 271.942" stroke="#292929" stroke-width="1.94266" stroke-miterlimit="10" stroke-linecap="round" stroke-linejoin="round"/>
</svg>
