<svg width="21" height="20" viewBox="0 0 21 20" fill="none" xmlns="http://www.w3.org/2000/svg">
<path d="M15.0833 7.45854C14.7462 7.58872 14.3794 7.68241 14.0015 7.71889C14.3915 7.51081 14.6879 7.18241 14.8278 6.79187C14.4675 6.98418 14.0599 7.12521 13.6358 7.19818C13.2921 6.86978 12.8041 6.66663 12.2632 6.66663C11.2221 6.66663 10.3849 7.42205 10.3849 8.34907C10.3849 8.47925 10.4025 8.60943 10.4312 8.73467C8.87235 8.6617 7.48209 7.99503 6.55782 6.97432C6.39478 7.22481 6.30224 7.51081 6.30224 7.82343C6.30224 8.40726 6.63383 8.92205 7.13948 9.22481C6.83102 9.21396 6.54019 9.13605 6.29012 9.01081V9.03152C6.29012 9.84907 6.93568 10.5266 7.79605 10.6824C7.63852 10.7189 7.46997 10.7396 7.30142 10.7396C7.17914 10.7396 7.06347 10.7288 6.9467 10.714C7.18465 11.3806 7.87757 11.8649 8.70269 11.8806C8.05714 12.3333 7.24854 12.5996 6.37054 12.5996C6.21301 12.5996 6.0676 12.5946 5.91667 12.5789C6.7495 13.0572 7.73767 13.3333 8.80184 13.3333C12.2566 13.3333 14.147 10.7712 14.147 8.5473C14.147 8.47432 14.147 8.40134 14.1414 8.32836C14.5072 8.08872 14.8278 7.79187 15.0833 7.45854Z" fill="#292929"/>
<rect x="0.916667" y="0.416667" width="19.1667" height="19.1667" rx="9.58333" stroke="#292929" stroke-width="0.833333"/>
</svg>
