<svg width="11" height="8" viewBox="0 0 11 8" fill="none" xmlns="http://www.w3.org/2000/svg">
<path d="M10.0833 1.45854C9.74624 1.58872 9.3794 1.68241 9.00154 1.71889C9.39151 1.51081 9.68785 1.18241 9.82776 0.791873C9.46753 0.98418 9.05992 1.12521 8.6358 1.19818C8.29209 0.869782 7.80406 0.666626 7.26316 0.666626C6.22212 0.666626 5.38488 1.42205 5.38488 2.34907C5.38488 2.47925 5.40251 2.60943 5.43115 2.73467C3.87235 2.6617 2.48209 1.99503 1.55782 0.974318C1.39478 1.22481 1.30224 1.51081 1.30224 1.82343C1.30224 2.40726 1.63383 2.92205 2.13948 3.22481C1.83102 3.21396 1.54019 3.13605 1.29012 3.01081V3.03152C1.29012 3.84907 1.93568 4.52659 2.79605 4.68241C2.63852 4.71889 2.46997 4.7396 2.30142 4.7396C2.17914 4.7396 2.06347 4.72876 1.9467 4.71396C2.18465 5.38063 2.87757 5.86485 3.70269 5.88063C3.05714 6.33329 2.24854 6.59956 1.37054 6.59956C1.21301 6.59956 1.0676 6.59463 0.916672 6.57886C1.7495 7.05716 2.73767 7.33329 3.80184 7.33329C7.25655 7.33329 9.14695 4.77116 9.14695 2.5473C9.14695 2.47432 9.14695 2.40134 9.14144 2.32836C9.50718 2.08872 9.82776 1.79187 10.0833 1.45854Z" fill="#292929"/>
</svg>
