<svg width="123" height="62" viewBox="0 0 123 62" fill="none" xmlns="http://www.w3.org/2000/svg">
<path fill-rule="evenodd" clip-rule="evenodd" d="M61.462 30.0125H47.5306C44.321 30.0125 40.8694 28.3407 42.4774 22.4849C44.4629 15.2534 53.9652 10.3621 61.462 10.3621C68.9587 10.3621 78.461 15.2532 80.4465 22.4849C82.0556 28.3405 78.603 30.0125 75.3933 30.0125H61.462V30.0125ZM6.37167 30.6513C4.23572 30.6378 2.0921 30.5973 0 30.5973V33.6615H122.921V30.5964C120.829 30.5964 118.686 30.6368 116.55 30.6503H114.229C110.024 30.6185 105.925 30.3805 102.371 29.4054C93.8497 27.0668 92.858 22.6642 88.568 16.3923C83.5692 9.08849 75.0149 0 61.4618 0C47.9087 0 39.3535 9.08652 34.3532 16.3943C30.0632 22.6642 29.0715 27.0669 20.5504 29.4073C16.9969 30.3825 12.8983 30.6205 8.69216 30.6523L6.37167 30.6513ZM80.1904 37.3125H88.6381C88.6381 43.0285 82.1599 61.4607 61.4612 61.4607C40.7609 61.4607 34.2844 43.0285 34.2844 37.3125H42.7321C42.7321 40.8999 47.1965 53.303 61.4622 53.303C75.7279 53.303 80.1924 40.8999 80.1924 37.3125H80.1904Z" fill="#292929"/>
</svg>
