<svg width="56" height="28" viewBox="0 0 56 28" fill="none" xmlns="http://www.w3.org/2000/svg">
<path fill-rule="evenodd" clip-rule="evenodd" d="M28.0006 13.6729H21.6538C20.1916 13.6729 18.6191 12.9113 19.3517 10.2436C20.2562 6.94908 24.5852 4.72072 28.0006 4.72072C31.4159 4.72072 35.7449 6.94897 36.6494 10.2436C37.3825 12.9112 35.8096 13.6729 34.3473 13.6729H28.0006ZM2.90278 13.964C1.92969 13.9578 0.953111 13.9394 0 13.9394V15.3354H56V13.9389C55.0469 13.9389 54.0703 13.9574 53.0972 13.9635H52.0399C50.1242 13.949 48.2569 13.8406 46.6376 13.3964C42.7556 12.331 42.3038 10.3253 40.3494 7.46792C38.072 4.14049 34.1749 0 28.0005 0C21.826 0 17.9285 4.13959 15.6505 7.46882C13.696 10.3253 13.2443 12.331 9.36227 13.3973C7.74338 13.8415 5.87616 13.9499 3.95993 13.9644L2.90278 13.964ZM36.5328 16.9987H40.3813C40.3813 19.6027 37.43 28 28.0002 28C18.5697 28 15.6191 19.6027 15.6191 16.9987H19.4677C19.4677 18.633 21.5016 24.2835 28.0007 24.2835C34.4998 24.2835 36.5337 18.633 36.5337 16.9987H36.5328Z" fill="white"/>
</svg>
