<svg width="139" height="24" viewBox="0 0 139 24" fill="none" xmlns="http://www.w3.org/2000/svg">
<path d="M0 22.6054H4.41V11.6854L11.28 18.5854L18.18 11.6854V22.6054H22.56V2.05542L11.28 12.5254L0.0300002 2.05542L0 22.6054Z" fill="white"/>
<path d="M33.5616 22.9054C38.0916 22.9054 41.5416 19.5754 41.5416 14.8354V6.55542H37.3416V14.8354C37.3416 17.2054 35.7816 18.7054 33.5616 18.7054C31.3116 18.7054 29.7816 17.2054 29.7816 14.8354V6.55542H25.5816V14.8354C25.5816 19.5754 29.0016 22.9054 33.5616 22.9054Z" fill="white"/>
<path d="M43.38 21.1054C52.5 25.6054 58.41 22.8754 58.41 17.8354C58.41 12.5554 48.12 13.0654 48.21 10.8454C48.3 8.83542 53.16 8.65542 56.34 11.1154L58.05 8.23542C52.11 4.30542 44.22 5.29542 43.83 10.6054C43.53 16.6954 54.06 15.7354 54.06 18.0154C54.06 20.6254 48.6 19.7554 44.85 17.6254L43.38 21.1054Z" fill="white"/>
<path d="M68.2169 22.9054C71.157 22.9054 73.767 22.1854 75.387 20.3554L72.207 17.9254C71.667 18.6754 69.747 19.1854 68.637 19.1554C66.597 19.1554 64.887 17.7754 64.677 16.3354H75.387C76.887 10.3354 73.1669 6.13542 67.827 6.10542C62.937 6.07542 60.087 10.1554 60.087 14.4754C60.087 18.6154 63.3569 22.9054 68.2169 22.9054ZM64.647 12.7054C64.647 11.4154 65.757 9.79542 67.977 9.79542C70.557 9.79542 71.427 11.6254 71.277 12.7054H64.647Z" fill="white"/>
<path d="M79.3219 22.6054H83.7319V6.25542H89.0119V2.05542H74.0419V6.25542H79.3219V22.6054Z" fill="white"/>
<path d="M92.0273 5.08542C93.2573 5.08542 94.2473 4.00542 94.2473 2.83542C94.2473 1.63542 93.2573 0.615417 92.0273 0.615417C90.8273 0.615417 89.8073 1.63542 89.8073 2.83542C89.8073 4.00542 90.8273 5.08542 92.0273 5.08542ZM90.0173 22.6054H94.0073V6.55542H90.0173V22.6054Z" fill="white"/>
<path d="M97.6995 22.6054H101.899V13.4254C101.899 11.7754 102.679 10.3654 104.299 10.3654C105.919 10.3654 106.669 11.7754 106.669 13.4254V22.6054H110.869V13.4254C110.869 11.7754 111.649 10.3654 113.269 10.3654C114.889 10.3654 115.639 11.7754 115.639 13.4254V22.6054H119.839V13.4254C119.839 9.25542 117.529 6.16542 113.269 6.16542C111.349 6.16542 109.759 6.91542 108.769 8.05542C107.809 6.91542 106.219 6.16542 104.299 6.16542C100.039 6.16542 97.6995 9.25542 97.6995 13.4254V22.6054Z" fill="white"/>
<path d="M130.998 22.9054C133.938 22.9054 136.548 22.1854 138.168 20.3554L134.988 17.9254C134.448 18.6754 132.528 19.1854 131.418 19.1554C129.378 19.1554 127.668 17.7754 127.458 16.3354H138.168C139.668 10.3354 135.948 6.13542 130.608 6.10542C125.718 6.07542 122.868 10.1554 122.868 14.4754C122.868 18.6154 126.138 22.9054 130.998 22.9054ZM127.428 12.7054C127.428 11.4154 128.538 9.79542 130.758 9.79542C133.338 9.79542 134.208 11.6254 134.058 12.7054H127.428Z" fill="white"/>
</svg>
