<svg width="45" height="45" viewBox="0 0 45 45" fill="none" xmlns="http://www.w3.org/2000/svg">
<rect width="45" height="45" rx="9.375" fill="#3366FF"/>
<path fill-rule="evenodd" clip-rule="evenodd" d="M25.7217 30.8412C25.7217 31.5592 26.653 31.8412 27.0513 31.2437L33.56 21.4806C33.8815 20.9983 33.5358 20.3524 32.9562 20.3524H27.8694V14.1588C27.8694 13.4407 26.9381 13.1588 26.5398 13.7562L20.0311 23.5193C19.7096 24.0016 20.0553 24.6476 20.6349 24.6476H25.7217V30.8412Z" fill="white"/>
<path opacity="0.3" fill-rule="evenodd" clip-rule="evenodd" d="M12.8362 16.5941C12.8362 15.7045 13.5574 14.9834 14.4469 14.9834H19.816C20.7055 14.9834 21.4267 15.7045 21.4267 16.5941C21.4267 17.4837 20.7055 18.2048 19.816 18.2048H14.4469C13.5574 18.2048 12.8362 17.4837 12.8362 16.5941ZM12.8362 29.4798C12.8362 28.5902 13.5574 27.8691 14.4469 27.8691H19.816C20.7055 27.8691 21.4267 28.5902 21.4267 29.4798C21.4267 30.3694 20.7055 31.0905 19.816 31.0905H14.4469C13.5574 31.0905 12.8362 30.3694 12.8362 29.4798ZM12.2989 21.4263C11.4093 21.4263 10.6881 22.1474 10.6881 23.037C10.6881 23.9265 11.4093 24.6477 12.2989 24.6477H16.5941C17.4837 24.6477 18.2048 23.9265 18.2048 23.037C18.2048 22.1474 17.4837 21.4263 16.5941 21.4263H12.2989Z" fill="white"/>
<rect x="0.46875" y="0.46875" width="44.0625" height="44.0625" rx="8.90625" stroke="black" stroke-opacity="0.1" stroke-width="0.9375"/>
</svg>
