<svg width="45" height="45" viewBox="0 0 45 45" fill="none" xmlns="http://www.w3.org/2000/svg">
<rect width="45" height="45" rx="9.375" fill="#121212"/>
<g clip-path="url(#clip0_2_36)">
<path d="M10.8611 25.4506H6.89608L7.27263 23.5849L6.64191 23.3966C6.62023 23.3893 6.60232 23.3737 6.5921 23.3532C6.58187 23.3328 6.58015 23.3091 6.58731 23.2874C6.59193 23.2749 6.59919 23.2635 6.60862 23.2541C6.61805 23.2447 6.6294 23.2374 6.64191 23.2328L7.09565 23.0652L8.66961 22.459C8.69104 22.451 8.70842 22.4348 8.71795 22.4139C8.72747 22.3931 8.72837 22.3694 8.72044 22.3479C8.7159 22.3364 8.70904 22.326 8.70029 22.3172C8.69155 22.3085 8.68111 22.3016 8.66961 22.2971L7.59833 21.9751L8.08784 19.5276L8.73739 19.023H6.34256L5.7495 21.9845L6.78123 22.2933C6.80266 22.3014 6.82004 22.3175 6.82957 22.3384C6.83909 22.3592 6.83999 22.3829 6.83207 22.4044C6.82752 22.4159 6.82066 22.4263 6.81192 22.4351C6.80317 22.4438 6.79273 22.4507 6.78123 22.4552L5.55746 22.9165L4.746 23.2121C4.72432 23.2194 4.70642 23.235 4.69619 23.2554C4.68596 23.2759 4.68424 23.2996 4.6914 23.3213C4.69602 23.3338 4.70329 23.3451 4.71272 23.3546C4.72214 23.364 4.7335 23.3713 4.746 23.3759L5.41814 23.5886L4.74976 26.9324H9.93104C10.1043 26.932 10.2722 26.8718 10.4063 26.7621C10.5404 26.6523 10.6325 26.4997 10.6672 26.3299L10.7896 25.7387L11.1661 25.445H10.8479L10.8611 25.4506Z" fill="#53EB41"/>
<path d="M17.204 18.9872H15.4192C15.2453 18.9873 15.0768 19.0475 14.9423 19.1577C14.8078 19.2678 14.7155 19.4211 14.6812 19.5916L14.1954 21.9883L15.2535 22.3046C15.275 22.3127 15.2923 22.3288 15.3019 22.3497C15.3114 22.3705 15.3123 22.3942 15.3044 22.4157C15.2998 22.4272 15.2929 22.4376 15.2842 22.4464C15.2755 22.4551 15.265 22.462 15.2535 22.4665L14.0316 22.9278L13.2183 23.229C13.1966 23.2363 13.1787 23.2519 13.1685 23.2724C13.1582 23.2928 13.1565 23.3165 13.1637 23.3382C13.1683 23.3507 13.1756 23.3621 13.185 23.3715C13.1944 23.3809 13.2058 23.3882 13.2183 23.3928L13.8754 23.5811L13.2145 26.8872H14.4383C14.6124 26.887 14.7811 26.8266 14.9157 26.716C15.0503 26.6055 15.1424 26.4517 15.1763 26.2809L15.7186 23.5679L15.1123 23.3796C15.0906 23.3723 15.0727 23.3568 15.0625 23.3363C15.0523 23.3158 15.0505 23.2922 15.0577 23.2705C15.0623 23.2579 15.0696 23.2466 15.079 23.2372C15.0885 23.2277 15.0998 23.2205 15.1123 23.2159L15.5661 23.0483L17.1419 22.459C17.1633 22.451 17.1807 22.4348 17.1902 22.4139C17.1998 22.3931 17.2007 22.3694 17.1927 22.3479C17.1882 22.3364 17.1813 22.326 17.1726 22.3172C17.1638 22.3085 17.1534 22.3016 17.1419 22.2971L16.0461 21.9695L16.5488 19.5012L17.204 18.9872Z" fill="#53EB41"/>
<path d="M28.1237 18.8818H25.774L24.795 23.8371L22.1592 19.4127L22.8521 18.8818H20.9505C20.7766 18.8818 20.6081 18.942 20.4736 19.0522C20.3391 19.1624 20.2468 19.3157 20.2125 19.4861L19.7079 22.0071L20.7133 22.3083C20.7347 22.3164 20.7521 22.3326 20.7616 22.3534C20.7711 22.3742 20.772 22.3979 20.7641 22.4194C20.7596 22.4309 20.7527 22.4414 20.744 22.4501C20.7352 22.4589 20.7248 22.4657 20.7133 22.4703L19.5196 22.9202L18.678 23.2309C18.6564 23.2382 18.6385 23.2538 18.6282 23.2742C18.618 23.2947 18.6163 23.3184 18.6234 23.3401C18.6281 23.3526 18.6353 23.3639 18.6448 23.3734C18.6542 23.3828 18.6655 23.3901 18.678 23.3947L19.3728 23.6074L18.7515 26.7892H20.5589L21.553 21.8414L24.5013 26.7892H25.3862C25.5603 26.7891 25.7291 26.7286 25.8636 26.6181C25.9982 26.5075 26.0903 26.3538 26.1242 26.183L26.6457 23.5886L26.032 23.4003C26.0103 23.393 25.9924 23.3774 25.9822 23.357C25.9719 23.3365 25.9702 23.3128 25.9774 23.2911C25.982 23.2786 25.9893 23.2673 25.9987 23.2578C26.0081 23.2484 26.0195 23.2411 26.032 23.2365L26.4857 23.069L28.0616 22.459C28.083 22.4509 28.1004 22.4347 28.1099 22.4139C28.1194 22.3931 28.1203 22.3694 28.1124 22.3479C28.1079 22.3364 28.101 22.3259 28.0922 22.3172C28.0835 22.3084 28.0731 22.3016 28.0616 22.297L26.9715 21.9713L27.493 19.3656L28.1237 18.8818Z" fill="#53EB41"/>
<path d="M33.9396 23.4003C33.9179 23.393 33.9 23.3774 33.8898 23.357C33.8796 23.3365 33.8778 23.3128 33.885 23.2911C33.8896 23.2786 33.8969 23.2673 33.9063 23.2578C33.9157 23.2484 33.9271 23.2411 33.9396 23.2365L34.3933 23.069L35.9692 22.459C35.9906 22.4509 36.008 22.4347 36.0175 22.4139C36.0271 22.3931 36.028 22.3694 36.02 22.3479C36.0155 22.3364 36.0086 22.3259 35.9999 22.3172C35.9911 22.3084 35.9807 22.3016 35.9692 22.297L35.1653 22.0561L38.6144 19.0211H36.4003L32.2998 22.6472L32.9286 19.5163L33.5875 19.0042H32.0814V19.0211H31.8347C31.6569 19.018 31.4838 19.078 31.346 19.1903C31.2081 19.3026 31.1145 19.4601 31.0816 19.6349L30.6072 22.0052L31.6314 22.3121C31.6528 22.3201 31.6702 22.3363 31.6797 22.3572C31.6892 22.378 31.6901 22.4017 31.6822 22.4232C31.6777 22.4347 31.6708 22.4451 31.6621 22.4539C31.6533 22.4626 31.6429 22.4695 31.6314 22.474L30.417 22.9334L29.5962 23.2365C29.5745 23.2438 29.5566 23.2594 29.5463 23.2799C29.5361 23.3003 29.5344 23.324 29.5416 23.3457C29.5462 23.3582 29.5534 23.3696 29.5629 23.379C29.5723 23.3884 29.5836 23.3957 29.5962 23.4003L30.2758 23.6074L29.6093 26.9361H31.4224L31.8178 24.9705L33.0943 23.8409L34.913 26.601C34.9816 26.7051 35.0749 26.7906 35.1847 26.8497C35.2944 26.9089 35.4171 26.9398 35.5418 26.9399H37.1911L35.1464 23.7769L33.9396 23.4003Z" fill="#53EB41"/>
<path d="M11.8756 24.9065H11.0585L11.0435 24.9969L11.0058 24.9686V25.2002L10.9795 25.3395H11.6328L11.3278 25.7462L10.9926 26.8965L11.4125 27.0095L11.6968 25.9721L12.1223 25.4073C12.1573 25.3613 12.1787 25.3063 12.184 25.2488C12.1893 25.1912 12.1784 25.1333 12.1524 25.0816C12.1268 25.0298 12.0874 24.9861 12.0386 24.9552C11.9898 24.9243 11.9334 24.9074 11.8756 24.9065V24.9065Z" fill="#53EB41"/>
<path d="M10.157 18.91H9.45285L8.62633 19.5558L8.12553 21.9168L9.23257 22.331L7.8996 23.0106L7.50046 25.0044L7.92407 25.0873L8.28367 23.2911L9.48673 22.6774C9.58218 22.6284 9.65454 22.5439 9.68819 22.442C9.70518 22.3917 9.71193 22.3384 9.70805 22.2854C9.70417 22.2323 9.68974 22.1806 9.6656 22.1333C9.61864 22.0449 9.53992 21.9776 9.44531 21.945L9.36247 21.913L8.62821 21.6419L9.01794 19.8006L10.157 18.91Z" fill="#53EB41"/>
<path d="M18.6443 18.863H17.959L17.1136 19.5577L16.6053 21.9168L17.7123 22.331L16.3813 23.0106L15.6075 26.8872L16.0311 26.97L16.7672 23.2912L17.9703 22.6774C18.0657 22.6284 18.1381 22.5439 18.1717 22.442C18.1889 22.3916 18.1955 22.3382 18.1913 22.2851C18.1871 22.232 18.1721 22.1804 18.1473 22.1333C18.125 22.0891 18.0943 22.0497 18.0568 22.0174C18.0193 21.9851 17.9758 21.9605 17.9289 21.945L17.1136 21.6344L17.5034 19.7874L18.6443 18.863Z" fill="#53EB41"/>
<path d="M29.7012 18.75H29.0159L28.0331 19.5577L27.5248 21.9168L28.6318 22.331L27.3007 23.0106L26.5269 26.8872L26.9506 26.97L27.6867 23.2911L28.8898 22.6774C28.9852 22.6284 29.0576 22.5439 29.0912 22.442C29.1084 22.3916 29.115 22.3382 29.1108 22.2851C29.1066 22.232 29.0916 22.1804 29.0667 22.1333C29.0445 22.0891 29.0138 22.0497 28.9763 22.0174C28.9388 21.9851 28.8953 21.9605 28.8483 21.945L28.0331 21.6343L28.4229 19.7874L29.7012 18.75Z" fill="#53EB41"/>
<path d="M37.1872 22.8449C37.2589 22.816 37.3207 22.7667 37.3648 22.7032C37.409 22.6396 37.4336 22.5646 37.4357 22.4872C37.4396 22.4138 37.4227 22.3409 37.3871 22.2766C37.3515 22.2124 37.2985 22.1594 37.2342 22.1238L36.8972 21.8941L40.3125 18.9571H39.6479L36.1818 21.945L36.9782 22.459L35.376 23.1424L38.0683 27.1526L38.4279 26.9097L36.018 23.3457L37.1872 22.8449Z" fill="#53EB41"/>
</g>
<rect x="0.46875" y="0.46875" width="44.0625" height="44.0625" rx="8.90625" stroke="black" stroke-opacity="0.1" stroke-width="0.9375"/>
<defs>
<clipPath id="clip0_2_36">
<rect width="35.625" height="8.40262" fill="white" transform="translate(4.6875 18.75)"/>
</clipPath>
</defs>
</svg>
