<svg width="45" height="45" viewBox="0 0 45 45" fill="none" xmlns="http://www.w3.org/2000/svg">
<rect width="45" height="45" rx="9.375" fill="#FAFAFA"/>
<path d="M16.2931 33.2568C19.1742 33.2568 20.5716 31.8109 20.5716 30.1193C20.5716 26.4035 14.7085 27.6903 14.7085 25.8252C14.7085 25.189 15.2415 24.6685 16.6244 24.6685C17.5176 24.6685 18.4828 24.9288 19.4191 25.4637L20.1394 23.6854C19.2031 23.0926 17.9065 22.7889 16.6388 22.7889C13.7721 22.7889 12.3892 24.2203 12.3892 25.9409C12.3892 29.7 18.2523 28.3988 18.2523 30.2928C18.2523 30.9145 17.6905 31.3772 16.3075 31.3772C15.0974 31.3772 13.8297 30.9434 12.9798 30.3217L12.1875 32.0857C13.0807 32.7797 14.6941 33.2568 16.2931 33.2568Z" fill="#2A3243"/>
<path d="M27.0837 31.2037V28.8614H31.7655V27.0397H27.0837V24.842H32.3849V22.9624H24.7644V33.0833H32.5722V31.2037H27.0837Z" fill="#2A3243"/>
<path d="M22.263 20.5851L22.2366 11.3293H20.478L17.4191 17.0811L14.3292 11.3293H12.5574V20.5851H14.5672V15.1506L16.9035 19.6066H17.8687L20.24 15.0316L20.2532 20.5851H22.263Z" fill="#2A3243"/>
<path d="M28.6483 20.7437C31.2796 20.7437 32.5681 19.1571 32.5681 16.4332V11.25H30.4525V16.3539C30.4525 18.1125 29.9706 18.919 28.6615 18.919C27.3657 18.919 26.7871 18.1918 26.7871 16.4332V11.3293H24.645V16.5125C24.645 19.2364 26.017 20.7437 28.6483 20.7437Z" fill="#2A3243"/>
<rect x="0.46875" y="0.46875" width="44.0625" height="44.0625" rx="8.90625" stroke="black" stroke-opacity="0.1" stroke-width="0.9375"/>
</svg>
