<svg width="305" height="51" viewBox="0 0 305 51" fill="none" xmlns="http://www.w3.org/2000/svg">
<path d="M0.871765 49.0095H10.5518V25.0399L25.6317 40.1855L40.7774 25.0399V49.0095H50.3916V3.90174L25.6317 26.8837L0.937616 3.90174L0.871765 49.0095Z" fill="#292929"/>
<path d="M74.5403 49.6681C84.4838 49.6681 92.0566 42.3586 92.0566 31.9542V13.7794H82.8375V31.9542C82.8375 37.1564 79.4132 40.4489 74.5403 40.4489C69.6015 40.4489 66.2431 37.1564 66.2431 31.9542V13.7794H57.024V31.9542C57.024 42.3586 64.531 49.6681 74.5403 49.6681Z" fill="#292929"/>
<path d="M96.092 45.717C116.111 55.5946 129.083 49.6022 129.083 38.5393C129.083 26.9495 106.496 28.069 106.694 23.196C106.892 18.784 117.559 18.3889 124.54 23.7887L128.293 17.467C115.255 8.84056 97.9358 11.0136 97.0798 22.6692C96.4213 36.0369 119.535 33.9297 119.535 38.9344C119.535 44.6634 107.55 42.7537 99.3187 38.0783L96.092 45.717Z" fill="#292929"/>
<path d="M150.61 49.6681C157.063 49.6681 162.792 48.0876 166.348 44.0707L159.368 38.7368C158.183 40.3831 153.968 41.5026 151.532 41.4367C147.054 41.4367 143.3 38.4076 142.839 35.2467H166.348C169.641 22.0766 161.475 12.8575 149.754 12.7916C139.02 12.7258 132.764 21.6815 132.764 31.164C132.764 40.2514 139.942 49.6681 150.61 49.6681ZM142.774 27.2788C142.774 24.4472 145.21 20.8913 150.083 20.8913C155.746 20.8913 157.656 24.9082 157.327 27.2788H142.774Z" fill="#292929"/>
<path d="M174.985 49.0095H184.665V13.1209H196.255V3.90174H163.396V13.1209H174.985V49.0095Z" fill="#292929"/>
<path d="M202.874 10.5527C205.574 10.5527 207.747 8.18205 207.747 5.61386C207.747 2.97983 205.574 0.740906 202.874 0.740906C200.24 0.740906 198.001 2.97983 198.001 5.61386C198.001 8.18205 200.24 10.5527 202.874 10.5527ZM198.462 49.0095H207.22V13.7794H198.462V49.0095Z" fill="#292929"/>
<path d="M215.325 49.0095H224.544V28.8592C224.544 25.2374 226.256 22.1424 229.812 22.1424C233.368 22.1424 235.014 25.2374 235.014 28.8592V49.0095H244.233V28.8592C244.233 25.2374 245.945 22.1424 249.501 22.1424C253.057 22.1424 254.703 25.2374 254.703 28.8592V49.0095H263.923V28.8592C263.923 19.7059 258.852 12.9233 249.501 12.9233C245.287 12.9233 241.797 14.5696 239.624 17.0719C237.516 14.5696 234.026 12.9233 229.812 12.9233C220.461 12.9233 215.325 19.7059 215.325 28.8592V49.0095Z" fill="#292929"/>
<path d="M288.416 49.6681C294.87 49.6681 300.599 48.0876 304.155 44.0707L297.174 38.7368C295.989 40.3831 291.775 41.5026 289.338 41.4367C284.86 41.4367 281.107 38.4076 280.646 35.2467H304.155C307.447 22.0766 299.282 12.8575 287.56 12.7916C276.827 12.7258 270.571 21.6815 270.571 31.164C270.571 40.2514 277.748 49.6681 288.416 49.6681ZM280.58 27.2788C280.58 24.4472 283.017 20.8913 287.89 20.8913C293.553 20.8913 295.462 24.9082 295.133 27.2788H280.58Z" fill="#292929"/>
</svg>
