<svg width="278" height="275" viewBox="0 0 278 275" fill="none" xmlns="http://www.w3.org/2000/svg">
<g clip-path="url(#clip0_204_3954)">
<path d="M193.041 61.9235C173.77 58.8481 151.825 57.2071 128.97 57.2071C108.053 57.2071 87.902 58.5794 69.8669 61.1671C69.8712 60.8901 69.8752 60.6132 69.8875 60.3362C70.3657 44.2603 77.113 29.0092 88.6873 17.8424C100.262 6.67564 115.745 0.479192 131.828 0.577445C147.91 0.675697 163.316 7.06086 174.754 18.3682C186.191 29.6756 192.751 45.008 193.033 61.0885C193.037 61.3696 193.041 61.6466 193.041 61.9235Z" fill="#A6BBCC"/>
<g opacity="0.1">
<path opacity="0.1" d="M139.531 0.554456C130.977 -0.60092 122.276 0.0539133 113.992 2.47651C105.707 4.89911 98.0241 9.03541 91.4405 14.6173C84.8569 20.1993 79.5196 27.1023 75.7746 34.8789C72.0295 42.6556 69.9603 51.1324 69.701 59.76C69.6885 60.0369 69.6845 60.3139 69.6804 60.5908C75.0384 59.8221 80.5869 59.1633 86.2832 58.6132C86.9799 44.2401 92.6865 30.5644 102.413 19.9592C112.139 9.35407 125.272 2.48871 139.531 0.554456Z" fill="white"/>
</g>
<path d="M219.984 66.8094C211.113 64.4046 202.115 62.4947 193.032 61.0885C178.145 58.7815 163.137 57.3392 148.083 56.7688C141.813 56.5125 135.426 56.3802 128.969 56.3802C123.852 56.3802 118.776 56.4629 113.77 56.6283C99.0857 57.0621 84.4362 58.2999 69.8873 60.3361C59.1175 61.8191 48.4521 63.9812 37.955 66.8094C13.4797 73.5762 0 82.6454 0 92.3429C0 102.04 13.4797 111.11 37.955 117.876C55.1675 122.638 76.3895 125.883 99.5132 127.371C109.058 127.991 118.925 128.306 128.969 128.306C139.047 128.306 148.947 127.987 158.521 127.367C179.565 126.007 199.035 123.192 215.329 119.1C215.416 119.075 215.499 119.054 215.586 119.034C216.685 118.761 217.768 118.476 218.839 118.191C219.223 118.083 219.603 117.98 219.984 117.876C220.005 117.868 220.027 117.861 220.05 117.856C220.414 117.756 220.773 117.653 221.133 117.554C221.852 117.347 222.563 117.145 223.262 116.934C223.295 116.926 223.324 116.917 223.353 116.909C223.96 116.727 224.556 116.545 225.147 116.363C225.63 116.21 226.11 116.062 226.585 115.909C226.933 115.797 227.276 115.686 227.615 115.574C227.863 115.491 228.106 115.413 228.346 115.33C228.673 115.223 228.999 115.111 229.322 114.999C229.458 114.954 229.595 114.908 229.727 114.859C230.037 114.755 230.339 114.648 230.64 114.541C230.967 114.425 231.293 114.305 231.616 114.189C231.885 114.094 232.153 113.995 232.418 113.896C232.641 113.809 232.86 113.726 233.083 113.644C233.691 113.416 234.286 113.181 234.873 112.949C235.167 112.829 235.46 112.713 235.749 112.594C236.035 112.478 236.324 112.358 236.605 112.238C237.068 112.044 237.523 111.849 237.969 111.655C238.184 111.556 238.403 111.461 238.614 111.37C238.775 111.296 238.932 111.225 239.094 111.151C239.209 111.101 239.325 111.048 239.437 110.994C239.854 110.804 240.268 110.609 240.673 110.415C242.227 109.671 243.678 108.911 245.025 108.133C253.479 103.293 257.939 97.9233 257.939 92.3429C257.939 82.6454 244.459 73.5762 219.984 66.8094ZM219.761 117.083C202.528 121.849 181.248 125.094 158.062 126.569C148.633 127.169 138.886 127.479 128.969 127.479C119.086 127.479 109.372 127.173 99.972 126.574C76.7492 125.102 55.4361 121.857 38.1782 117.083C14.0915 110.419 0.826727 101.635 0.826727 92.3429C0.828073 91.5218 0.930845 90.704 1.13271 89.9082C3.24071 81.5252 16.208 73.6795 38.1782 67.6031C48.596 64.7969 59.1796 62.6473 69.8667 61.167C84.5032 59.1193 99.2411 57.8773 114.014 57.4467C118.941 57.2855 123.927 57.2056 128.969 57.207C135.339 57.207 141.639 57.3351 147.831 57.5831C162.973 58.1485 178.068 59.5977 193.041 61.9234C202.045 63.3234 210.965 65.2195 219.761 67.6031C241.727 73.6795 254.69 81.521 256.802 89.8999C257.007 90.698 257.111 91.5188 257.112 92.3429C257.112 101.635 243.847 110.419 219.761 117.083Z" fill="#292929"/>
<path d="M257.703 92.7192C257.703 98.2417 253.152 103.467 245.025 108.133C243.674 108.911 242.219 109.671 240.673 110.415C240.267 110.61 239.854 110.804 239.437 110.994C239.325 111.048 239.209 111.101 239.094 111.151C238.932 111.225 238.775 111.296 238.614 111.37C238.403 111.461 238.184 111.556 237.969 111.655C237.523 111.85 237.068 112.044 236.605 112.238C236.324 112.358 236.035 112.478 235.749 112.594C235.46 112.714 235.167 112.829 234.873 112.949C234.286 113.181 233.691 113.416 233.083 113.644C232.86 113.726 232.641 113.809 232.418 113.896C232.153 113.995 231.885 114.094 231.616 114.189C231.293 114.305 230.967 114.425 230.64 114.541C230.338 114.648 230.037 114.756 229.727 114.859C229.594 114.909 229.458 114.954 229.322 114.999C228.999 115.111 228.673 115.223 228.346 115.33C228.106 115.413 227.862 115.491 227.614 115.574C227.275 115.686 226.932 115.797 226.585 115.909C226.11 116.062 225.63 116.211 225.147 116.364C224.556 116.545 223.96 116.727 223.353 116.909C223.324 116.917 223.295 116.926 223.262 116.934C222.563 117.145 221.852 117.347 221.133 117.554C220.773 117.653 220.414 117.757 220.05 117.856C220.027 117.861 220.005 117.868 219.984 117.876C219.603 117.98 219.223 118.083 218.839 118.191C217.772 118.472 216.685 118.757 215.586 119.034C215.499 119.055 215.416 119.075 215.329 119.1C199.477 123.06 180.028 125.945 158.504 127.338C149.075 127.946 139.245 128.268 129.147 128.268C118.958 128.268 109.045 127.942 99.542 127.322C42.8119 123.622 0.591064 109.535 0.591064 92.7191C0.595531 91.696 0.751494 90.6791 1.05388 89.7016C1.0787 89.7719 1.10353 89.838 1.13259 89.9083C7.0311 105.401 48.8926 117.922 103.209 120.977C111.53 121.448 120.148 121.692 128.969 121.692C137.828 121.692 146.479 121.444 154.833 120.973C209.104 117.905 250.924 105.38 256.802 89.9C256.901 89.652 256.988 89.4039 257.062 89.1559C257.481 90.2974 257.698 91.5032 257.703 92.7192Z" fill="#292929"/>
<path d="M37.8927 88.2696C31.0132 88.2696 23.7017 86.7895 23.7017 84.0464C23.7017 81.3032 31.0132 79.8231 37.8927 79.8231C44.7722 79.8231 52.0838 81.3032 52.0838 84.0464C52.0838 86.7895 44.7722 88.2696 37.8927 88.2696ZM37.8927 80.6498C30.0169 80.6498 24.5284 82.4399 24.5284 84.0464C24.5284 85.6528 30.0169 87.4429 37.8927 87.4429C45.7685 87.4429 51.257 85.6528 51.257 84.0464C51.257 82.4399 45.7685 80.6498 37.8927 80.6498Z" fill="#292929"/>
<path d="M67.2413 107.698C60.3619 107.698 53.0503 106.218 53.0503 103.474C53.0503 100.731 60.3619 99.2512 67.2413 99.2512C74.1208 99.2512 81.4324 100.731 81.4324 103.474C81.4324 106.218 74.1208 107.698 67.2413 107.698ZM67.2413 100.078C59.3655 100.078 53.877 101.868 53.877 103.474C53.877 105.081 59.3655 106.871 67.2413 106.871C75.1171 106.871 80.6057 105.081 80.6057 103.474C80.6057 101.868 75.1171 100.078 67.2413 100.078Z" fill="#292929"/>
<path d="M219.773 88.2696C212.893 88.2696 205.582 86.7895 205.582 84.0464C205.582 81.3032 212.893 79.8231 219.773 79.8231C226.652 79.8231 233.964 81.3032 233.964 84.0464C233.964 86.7895 226.652 88.2696 219.773 88.2696ZM219.773 80.6498C211.897 80.6498 206.408 82.4399 206.408 84.0464C206.408 85.6528 211.897 87.4429 219.773 87.4429C227.648 87.4429 233.137 85.6528 233.137 84.0464C233.137 82.4399 227.648 80.6498 219.773 80.6498Z" fill="#292929"/>
<path d="M190.424 107.698C183.544 107.698 176.233 106.218 176.233 103.474C176.233 100.731 183.544 99.2512 190.424 99.2512C197.303 99.2512 204.615 100.731 204.615 103.474C204.615 106.218 197.303 107.698 190.424 107.698ZM190.424 100.078C182.548 100.078 177.059 101.868 177.059 103.474C177.059 105.081 182.548 106.871 190.424 106.871C198.299 106.871 203.788 105.081 203.788 103.474C203.788 101.868 198.299 100.078 190.424 100.078Z" fill="#292929"/>
<path d="M128.833 116.792C121.953 116.792 114.642 115.312 114.642 112.568C114.642 109.825 121.953 108.345 128.833 108.345C135.712 108.345 143.024 109.825 143.024 112.568C143.024 115.312 135.712 116.792 128.833 116.792ZM128.833 109.172C120.957 109.172 115.468 110.962 115.468 112.568C115.468 114.175 120.957 115.965 128.833 115.965C136.708 115.965 142.197 114.175 142.197 112.568C142.197 110.962 136.708 109.172 128.833 109.172Z" fill="#292929"/>
<path d="M139.294 203.671C148.885 203.671 156.66 195.896 156.66 186.305C156.66 176.714 148.885 168.938 139.294 168.938C129.703 168.938 121.928 176.714 121.928 186.305C121.928 195.896 129.703 203.671 139.294 203.671Z" fill="#292929"/>
<path d="M132.691 197.715L124.239 201.947L126.601 206.665L135.053 202.432L132.691 197.715Z" fill="#292929"/>
<path d="M127.715 206.186C128.217 205.426 126.98 203.726 124.952 202.389C122.925 201.053 120.876 200.585 120.374 201.346C119.873 202.106 121.11 203.806 123.137 205.142C125.164 206.479 127.214 206.946 127.715 206.186Z" fill="#292929"/>
<path d="M145.899 197.715L143.536 202.432L151.988 206.665L154.351 201.947L145.899 197.715Z" fill="#292929"/>
<path d="M155.452 205.142C157.479 203.806 158.716 202.106 158.215 201.346C157.714 200.585 155.664 201.053 153.637 202.389C151.61 203.726 150.373 205.426 150.874 206.186C151.375 206.946 153.425 206.479 155.452 205.142Z" fill="#292929"/>
<path d="M138.079 187.992C141.357 187.992 144.014 185.335 144.014 182.057C144.014 178.779 141.357 176.121 138.079 176.121C134.801 176.121 132.143 178.779 132.143 182.057C132.143 185.335 134.801 187.992 138.079 187.992Z" fill="white"/>
<path d="M139.522 180.919C140.292 180.15 140.287 178.898 139.512 178.123C138.737 177.348 137.486 177.344 136.716 178.113C135.947 178.882 135.951 180.134 136.726 180.909C137.501 181.684 138.753 181.688 139.522 180.919Z" fill="#292929"/>
<path d="M152.994 167.412C153.256 160.983 147.714 155.537 140.618 155.249C133.521 154.96 127.557 159.939 127.296 166.368C127.035 172.797 131.968 174.258 139.064 174.546C146.161 174.835 152.733 173.841 152.994 167.412Z" fill="#A6BBCC"/>
<path d="M163.004 195.398C164.147 194.418 162.54 190.673 159.417 187.034C156.293 183.396 152.835 181.241 151.692 182.222C150.55 183.202 152.156 186.947 155.28 190.586C158.404 194.224 161.862 196.379 163.004 195.398Z" fill="#292929"/>
<path d="M123.358 190.585C126.481 186.947 128.088 183.202 126.945 182.221C125.803 181.241 122.345 183.396 119.221 187.034C116.097 190.673 114.491 194.418 115.633 195.398C116.776 196.379 120.234 194.224 123.358 190.585Z" fill="#292929"/>
<path d="M144.064 193.149C144.252 194.181 144.022 195.246 143.425 196.109C142.828 196.972 141.912 197.562 140.88 197.75C139.848 197.938 138.783 197.708 137.92 197.111C137.057 196.514 136.466 195.598 136.278 194.566L136.277 194.558C135.888 192.408 137.55 191.647 139.701 191.258C141.851 190.868 143.675 190.998 144.064 193.149Z" fill="white"/>
<path d="M109.955 204.778C109.735 204.778 109.525 204.691 109.37 204.536C109.215 204.381 109.128 204.17 109.128 203.951V155.174C109.128 154.955 109.215 154.745 109.37 154.59C109.525 154.435 109.735 154.347 109.955 154.347C110.174 154.347 110.384 154.435 110.539 154.59C110.694 154.745 110.781 154.955 110.781 155.174V203.951C110.781 204.17 110.694 204.381 110.539 204.536C110.384 204.691 110.174 204.778 109.955 204.778Z" fill="#CCCCCC"/>
<path d="M97.5538 248.594C97.3345 248.594 97.1242 248.507 96.9692 248.352C96.8142 248.197 96.7271 247.987 96.7271 247.768V212.218C96.7271 211.999 96.8142 211.789 96.9692 211.634C97.1242 211.479 97.3345 211.392 97.5538 211.392C97.773 211.392 97.9833 211.479 98.1384 211.634C98.2934 211.789 98.3805 211.999 98.3805 212.218V247.768C98.3805 247.987 98.2934 248.197 98.1383 248.352C97.9833 248.507 97.773 248.594 97.5538 248.594Z" fill="#CCCCCC"/>
<path d="M129.383 219.246C129.164 219.246 128.953 219.158 128.798 219.003C128.643 218.848 128.556 218.638 128.556 218.419V169.642C128.556 169.423 128.643 169.212 128.798 169.057C128.953 168.902 129.164 168.815 129.383 168.815C129.602 168.815 129.812 168.902 129.967 169.057C130.122 169.212 130.21 169.423 130.21 169.642V218.419C130.21 218.638 130.122 218.848 129.967 219.003C129.812 219.158 129.602 219.246 129.383 219.246Z" fill="#CCCCCC"/>
<path d="M117.395 254.381C117.176 254.381 116.966 254.294 116.811 254.139C116.656 253.984 116.569 253.774 116.569 253.555V233.713C116.569 233.494 116.656 233.284 116.811 233.129C116.966 232.974 117.176 232.887 117.395 232.887C117.615 232.887 117.825 232.974 117.98 233.129C118.135 233.284 118.222 233.494 118.222 233.713V253.555C118.222 253.774 118.135 253.984 117.98 254.139C117.825 254.294 117.615 254.381 117.395 254.381Z" fill="#CCCCCC"/>
<path d="M134.343 152.694C134.124 152.694 133.914 152.607 133.759 152.452C133.603 152.297 133.516 152.087 133.516 151.867V132.026C133.516 131.807 133.603 131.596 133.758 131.441C133.914 131.286 134.124 131.199 134.343 131.199C134.562 131.199 134.773 131.286 134.928 131.441C135.083 131.596 135.17 131.807 135.17 132.026V151.867C135.17 152.087 135.083 152.297 134.928 152.452C134.773 152.607 134.562 152.694 134.343 152.694Z" fill="#CCCCCC"/>
<path d="M93.0069 161.375C92.7876 161.375 92.5774 161.287 92.4223 161.132C92.2673 160.977 92.1802 160.767 92.1802 160.548V140.706C92.1802 140.487 92.2673 140.277 92.4223 140.122C92.5774 139.967 92.7876 139.88 93.0069 139.88C93.2262 139.88 93.4364 139.967 93.5915 140.122C93.7465 140.277 93.8336 140.487 93.8336 140.706V160.548C93.8336 160.767 93.7465 160.977 93.5915 161.132C93.4364 161.287 93.2262 161.375 93.0069 161.375Z" fill="#CCCCCC"/>
<path d="M164.932 163.441C164.713 163.441 164.502 163.354 164.347 163.199C164.192 163.044 164.105 162.834 164.105 162.615V142.773C164.105 142.554 164.192 142.344 164.347 142.189C164.502 142.034 164.713 141.947 164.932 141.947C165.151 141.947 165.361 142.034 165.517 142.189C165.672 142.344 165.759 142.554 165.759 142.773V162.615C165.759 162.834 165.672 163.044 165.517 163.199C165.361 163.354 165.151 163.441 164.932 163.441Z" fill="#CCCCCC"/>
<path d="M163.279 225.446C163.059 225.446 162.849 225.359 162.694 225.204C162.539 225.049 162.452 224.839 162.452 224.619V200.644C162.452 200.425 162.539 200.215 162.694 200.06C162.849 199.905 163.059 199.817 163.279 199.817C163.498 199.817 163.708 199.905 163.863 200.06C164.018 200.215 164.105 200.425 164.105 200.644V224.619C164.105 224.839 164.018 225.049 163.863 225.204C163.708 225.359 163.498 225.446 163.279 225.446Z" fill="#CCCCCC"/>
<path d="M146.744 246.528C146.525 246.528 146.314 246.44 146.159 246.285C146.004 246.13 145.917 245.92 145.917 245.701V210.152C145.917 209.932 146.004 209.722 146.159 209.567C146.314 209.412 146.525 209.325 146.744 209.325C146.963 209.325 147.173 209.412 147.329 209.567C147.484 209.722 147.571 209.932 147.571 210.152V245.701C147.571 245.92 147.484 246.13 147.329 246.285C147.173 246.44 146.963 246.528 146.744 246.528Z" fill="#CCCCCC"/>
<path d="M150.051 185.763C149.832 185.763 149.621 185.676 149.466 185.521C149.311 185.366 149.224 185.156 149.224 184.936V136.159C149.224 135.94 149.311 135.73 149.466 135.575C149.621 135.42 149.832 135.333 150.051 135.333C150.27 135.333 150.48 135.42 150.635 135.575C150.79 135.73 150.878 135.94 150.878 136.159V184.936C150.878 185.156 150.79 185.366 150.635 185.521C150.48 185.676 150.27 185.763 150.051 185.763Z" fill="#CCCCCC"/>
<path d="M251.405 259.557C252.588 258.567 250.989 254.708 247.833 250.939C244.677 247.169 241.16 244.917 239.977 245.908C238.793 246.898 240.392 250.757 243.548 254.526C246.704 258.296 250.222 260.548 251.405 259.557Z" fill="#292929"/>
<path d="M243.645 255.271C246.754 245.944 241.713 235.862 232.385 232.752C223.058 229.643 212.976 234.684 209.867 244.012C206.758 253.339 211.799 263.421 221.126 266.53C230.454 269.639 240.536 264.598 243.645 255.271Z" fill="#292929"/>
<path d="M234.291 263.613H228.883V273.303H234.291V263.613Z" fill="#292929"/>
<path d="M223.474 263.613H218.065V273.303H223.474V263.613Z" fill="#292929"/>
<path d="M229.784 275.106C232.273 275.106 234.291 274.349 234.291 273.415C234.291 272.482 232.273 271.725 229.784 271.725C227.295 271.725 225.277 272.482 225.277 273.415C225.277 274.349 227.295 275.106 229.784 275.106Z" fill="#292929"/>
<path d="M218.967 274.88C221.456 274.88 223.474 274.124 223.474 273.19C223.474 272.257 221.456 271.5 218.967 271.5C216.478 271.5 214.46 272.257 214.46 273.19C214.46 274.124 216.478 274.88 218.967 274.88Z" fill="#292929"/>
<path d="M221.166 227.263C222.755 220.861 229.772 217.094 236.838 218.849C243.904 220.603 248.344 227.215 246.754 233.617C245.165 240.019 239.891 240.039 232.825 238.285C225.759 236.53 219.576 233.665 221.166 227.263Z" fill="#CCCCCC"/>
<path d="M214.746 245.195C215.408 243.801 212.343 240.963 207.901 238.856C203.46 236.75 199.323 236.172 198.661 237.567C198 238.961 201.065 241.799 205.506 243.906C209.948 246.012 214.085 246.59 214.746 245.195Z" fill="#292929"/>
<path d="M224.095 251.82C227.373 251.82 230.03 249.163 230.03 245.885C230.03 242.607 227.373 239.95 224.095 239.95C220.817 239.95 218.159 242.607 218.159 245.885C218.159 249.163 220.817 251.82 224.095 251.82Z" fill="white"/>
<path d="M221.654 245.736C222.747 245.736 223.633 244.85 223.633 243.757C223.633 242.665 222.747 241.779 221.654 241.779C220.562 241.779 219.676 242.665 219.676 243.757C219.676 244.85 220.562 245.736 221.654 245.736Z" fill="#292929"/>
<path d="M224.043 260.758C225.412 260.758 226.523 259.647 226.523 258.277C226.523 256.908 225.412 255.797 224.043 255.797C222.673 255.797 221.562 256.908 221.562 258.277C221.562 259.647 222.673 260.758 224.043 260.758Z" fill="white"/>
<path d="M277.586 275.225H180.033C179.923 275.225 179.818 275.182 179.74 275.104C179.663 275.027 179.619 274.921 179.619 274.812C179.619 274.702 179.663 274.597 179.74 274.519C179.818 274.442 179.923 274.398 180.033 274.398H277.586C277.696 274.398 277.801 274.442 277.879 274.519C277.956 274.597 278 274.702 278 274.812C278 274.921 277.956 275.027 277.879 275.104C277.801 275.182 277.696 275.225 277.586 275.225Z" fill="#292929"/>
</g>
<defs>
<clipPath id="clip0_204_3954">
<rect width="278" height="275" fill="white"/>
</clipPath>
</defs>
</svg>
