<svg width="278" height="193" viewBox="0 0 278 193" fill="none" xmlns="http://www.w3.org/2000/svg">
<g clip-path="url(#clip0_208_7757)">
<path d="M52.7404 41.4299C61.5092 41.4299 68.6178 34.3214 68.6178 25.5526C68.6178 16.7837 61.5092 9.67523 52.7404 9.67523C43.9716 9.67523 36.8631 16.7837 36.8631 25.5526C36.8631 34.3214 43.9716 41.4299 52.7404 41.4299Z" fill="#AA9B7C"/>
<path d="M129.99 85.1227C129.99 122.586 107.718 135.667 80.2452 135.667C52.772 135.667 30.5007 122.586 30.5007 85.1227C30.5007 47.6593 80.2452 0 80.2452 0C80.2452 0 129.99 47.6593 129.99 85.1227Z" fill="#F2F2F2"/>
<path d="M78.4331 129.936L78.9426 98.5828L100.145 59.794L79.0225 93.6643L79.2515 79.5665L93.8641 51.5033L79.312 75.8358L79.7238 50.4802L95.3714 28.1383L79.7888 46.493L80.0461 0L78.4286 61.5484L78.5616 59.0093L62.6527 34.6582L78.3065 63.8834L76.8242 92.2011L76.7801 91.4496L58.4398 65.8236L76.7245 94.1049L76.5392 97.6462L76.506 97.6996L76.5211 97.9903L72.7604 169.835H77.7851L78.3879 132.726L96.6275 104.514L78.4331 129.936Z" fill="#292929"/>
<path d="M278 100.467C278 131.132 259.77 141.839 237.282 141.839C214.794 141.839 196.563 131.132 196.563 100.467C196.563 69.8011 237.282 30.7896 237.282 30.7896C237.282 30.7896 278 69.801 278 100.467Z" fill="#F2F2F2"/>
<path d="M235.798 137.149L236.215 111.484L253.57 79.7339L236.281 107.458L236.468 95.9186L248.429 72.9474L236.518 92.8647L236.855 72.1101L249.663 53.8221L236.908 68.8466L237.119 30.7896L235.795 81.1698L235.904 79.0916L222.881 59.1589L235.695 83.0813L234.481 106.261L234.445 105.645L219.433 84.6693L234.4 107.819L234.248 110.718L234.221 110.761L234.233 110.999L231.155 169.807H235.268L235.761 139.432L250.691 116.339L235.798 137.149Z" fill="#292929"/>
<path d="M137.585 175.77C213.571 175.77 275.17 172.656 275.17 168.815C275.17 164.974 213.571 161.86 137.585 161.86C61.5989 161.86 0 164.974 0 168.815C0 172.656 61.5989 175.77 137.585 175.77Z" fill="#292929"/>
<path d="M221.4 181.497C234.415 181.497 244.965 180.964 244.965 180.306C244.965 179.648 234.415 179.115 221.4 179.115C208.386 179.115 197.835 179.648 197.835 180.306C197.835 180.964 208.386 181.497 221.4 181.497Z" fill="#292929"/>
<path d="M136.128 192.988C149.143 192.988 159.693 192.454 159.693 191.797C159.693 191.139 149.143 190.605 136.128 190.605C123.114 190.605 112.563 191.139 112.563 191.797C112.563 192.454 123.114 192.988 136.128 192.988Z" fill="#292929"/>
<path d="M71.4342 184.884C101.168 184.884 125.272 183.665 125.272 182.162C125.272 180.659 101.168 179.441 71.4342 179.441C41.7005 179.441 17.5966 180.659 17.5966 182.162C17.5966 183.665 41.7005 184.884 71.4342 184.884Z" fill="#292929"/>
<path d="M24.0849 160.081C34.9089 160.081 43.6835 151.306 43.6835 140.482C43.6835 129.658 34.9089 120.883 24.0849 120.883C13.2609 120.883 4.48633 129.658 4.48633 140.482C4.48633 151.306 13.2609 160.081 24.0849 160.081Z" fill="#292929"/>
<path d="M20.9269 155.827L14.9733 155.757L14.8476 166.424L20.8012 166.494L20.9269 155.827Z" fill="#292929"/>
<path d="M32.834 155.967L26.8804 155.897L26.7547 166.564L32.7083 166.634L32.834 155.967Z" fill="#292929"/>
<path d="M24.7687 166.665C24.7808 165.637 22.5694 164.778 19.8293 164.746C17.0893 164.713 14.8582 165.52 14.8461 166.548C14.834 167.575 17.0454 168.434 19.7855 168.467C22.5256 168.499 24.7566 167.692 24.7687 166.665Z" fill="#292929"/>
<path d="M36.6789 166.557C36.691 165.529 34.4796 164.67 31.7395 164.638C28.9994 164.606 26.7684 165.412 26.7563 166.44C26.7442 167.468 28.9556 168.327 31.6957 168.359C34.4357 168.391 36.6668 167.584 36.6789 166.557Z" fill="#292929"/>
<path d="M24.6394 142.225C28.3388 142.225 31.3377 139.226 31.3377 135.526C31.3377 131.827 28.3388 128.828 24.6394 128.828C20.9401 128.828 17.9412 131.827 17.9412 135.526C17.9412 139.226 20.9401 142.225 24.6394 142.225Z" fill="white"/>
<path d="M24.6394 137.759C25.8726 137.759 26.8722 136.76 26.8722 135.526C26.8722 134.293 25.8726 133.294 24.6394 133.294C23.4063 133.294 22.4067 134.293 22.4067 135.526C22.4067 136.76 23.4063 137.759 24.6394 137.759Z" fill="#292929"/>
<path d="M5.28966 122.033C3.79077 114.928 8.9334 107.827 16.776 106.172C24.6187 104.518 32.1914 108.937 33.6903 116.042C35.1892 123.147 29.9745 125.7 22.1318 127.354C14.2892 129.009 6.78854 129.138 5.28966 122.033Z" fill="#A6BBCC"/>
<path d="M53.9809 151.416C53.9809 165.079 45.8587 169.85 35.8386 169.85C35.6065 169.85 35.3747 169.847 35.1433 169.842C34.6791 169.832 34.2192 169.81 33.7649 169.779C24.722 169.139 17.6963 164.123 17.6963 151.416C17.6963 138.265 34.5011 121.671 35.7634 120.443L35.7656 120.441C35.8143 120.394 35.8386 120.37 35.8386 120.37C35.8386 120.37 53.9809 137.752 53.9809 151.416Z" fill="#A6BBCC"/>
<path d="M35.1777 167.759L41.8132 158.488L35.1611 168.778L35.1434 169.842C34.6792 169.832 34.2193 169.81 33.765 169.779L34.4802 156.109L34.4747 156.003L34.4868 155.983L34.5543 154.692L27.8856 144.377L34.5753 153.724L34.5908 153.998L35.1313 143.669L29.4221 133.01L35.2009 141.856L35.7635 120.443L35.7657 120.37V120.441L35.6718 137.327L41.3556 130.633L35.6486 138.781L35.4983 148.029L40.8051 139.154L35.4762 149.389L35.3921 154.53L43.0965 142.178L35.3634 156.324L35.1777 167.759Z" fill="#292929"/>
<path d="M176.756 159.869C187.58 159.869 196.354 151.094 196.354 140.27C196.354 129.446 187.58 120.671 176.756 120.671C165.932 120.671 157.157 129.446 157.157 140.27C157.157 151.094 165.932 159.869 176.756 159.869Z" fill="#292929"/>
<path d="M178.428 155.847L172.737 157.596L175.871 167.793L181.562 166.044L178.428 155.847Z" fill="#292929"/>
<path d="M189.811 152.35L184.119 154.099L187.253 164.296L192.944 162.547L189.811 152.35Z" fill="#292929"/>
<path d="M181.196 168.232C183.816 167.428 185.695 165.979 185.393 164.996C185.091 164.014 182.723 163.87 180.103 164.675C177.484 165.48 175.605 166.929 175.907 167.912C176.209 168.894 178.577 169.037 181.196 168.232Z" fill="#292929"/>
<path d="M192.506 164.497C195.126 163.692 197.004 162.243 196.702 161.261C196.401 160.279 194.032 160.135 191.413 160.94C188.794 161.745 186.915 163.194 187.217 164.176C187.519 165.159 189.887 165.302 192.506 164.497Z" fill="#292929"/>
<path d="M175.772 142.08C179.472 142.08 182.47 139.081 182.47 135.381C182.47 131.682 179.472 128.683 175.772 128.683C172.073 128.683 169.074 131.682 169.074 135.381C169.074 139.081 172.073 142.08 175.772 142.08Z" fill="white"/>
<path d="M175.772 137.614C177.005 137.614 178.005 136.615 178.005 135.381C178.005 134.148 177.005 133.149 175.772 133.149C174.539 133.149 173.539 134.148 173.539 135.381C173.539 136.615 174.539 137.614 175.772 137.614Z" fill="#292929"/>
<path d="M153.229 128.433C149.634 122.123 152.366 113.792 159.33 109.824C166.294 105.857 174.854 107.755 178.449 114.065C182.043 120.374 177.856 124.396 170.891 128.363C163.927 132.331 156.823 134.742 153.229 128.433Z" fill="#A6BBCC"/>
<path d="M141.802 148.914C141.802 161.456 134.347 165.835 125.149 165.835C124.935 165.835 124.723 165.833 124.51 165.828C124.084 165.819 123.662 165.799 123.245 165.77C114.944 165.183 108.495 160.578 108.495 148.914C108.495 136.842 123.921 121.61 125.08 120.482L125.082 120.48C125.126 120.437 125.149 120.415 125.149 120.415C125.149 120.415 141.802 136.371 141.802 148.914Z" fill="#A6BBCC"/>
<path d="M124.542 163.916L130.633 155.405L124.527 164.851L124.51 165.828C124.084 165.819 123.662 165.799 123.245 165.77L123.901 153.222L123.896 153.124L123.908 153.106L123.969 151.921L117.848 142.452L123.989 151.032L124.003 151.284L124.499 141.803L119.258 132.018L124.563 140.139L125.08 120.482L125.082 120.415V120.48L124.995 135.981L130.213 129.836L124.974 137.316L124.836 145.805L129.707 137.658L124.816 147.054L124.739 151.773L131.811 140.434L124.712 153.42L124.542 163.916Z" fill="#292929"/>
<path d="M207.296 154.144C207.296 167.808 199.174 172.579 189.154 172.579C188.922 172.579 188.69 172.576 188.459 172.571C187.994 172.561 187.535 172.539 187.08 172.508C178.037 171.868 171.012 166.852 171.012 154.144C171.012 140.994 187.816 124.4 189.079 123.172L189.081 123.17C189.13 123.122 189.154 123.099 189.154 123.099C189.154 123.099 207.296 140.481 207.296 154.144Z" fill="#A6BBCC"/>
<path d="M188.493 170.488L195.129 161.217L188.476 171.506L188.459 172.571C187.995 172.561 187.535 172.539 187.08 172.508L187.796 158.838L187.79 158.732L187.802 158.712L187.87 157.421L181.201 147.105L187.891 156.452L187.906 156.727L188.447 146.398L182.737 135.739L188.516 144.585L189.079 123.172L189.081 123.099V123.17L188.987 140.056L194.671 133.361L188.964 141.51L188.814 150.758L194.12 141.883L188.791 152.118L188.707 157.259L196.412 144.907L188.679 159.053L188.493 170.488Z" fill="#292929"/>
<path d="M178 152.002C178.728 150.467 175.354 147.343 170.465 145.023C165.575 142.704 161.02 142.069 160.292 143.604C159.564 145.139 162.938 148.263 167.828 150.582C172.718 152.902 177.272 153.537 178 152.002Z" fill="#292929"/>
<path d="M27.1595 150.208C27.7916 148.631 24.2317 145.721 19.2082 143.707C14.1847 141.694 9.59996 141.34 8.96786 142.917C8.33576 144.494 11.8957 147.405 16.9192 149.418C21.9427 151.432 26.5274 151.785 27.1595 150.208Z" fill="#292929"/>
</g>
<defs>
<clipPath id="clip0_208_7757">
<rect width="278" height="192.988" fill="white"/>
</clipPath>
</defs>
</svg>
