<svg width="527" height="79" viewBox="0 0 527 79" fill="none" xmlns="http://www.w3.org/2000/svg">
<path d="M10.88 13.48C10.96 15.64 12.64 17.32 14.8 17.32C16.88 17.32 18.64 15.64 18.64 13.48C18.64 11.32 16.88 9.64 14.8 9.64C14.16 9.64 13.6 9.8 13.04 10.04C14 8.04 15.36 6.36 16.4 5.4L15.28 4.76C13.84 6.04 10.88 9.24 10.88 13.48ZM0.4 13.48C0.4 15.64 2.16 17.32 4.24 17.32C6.4 17.32 8.16 15.64 8.16 13.48C8.16 11.32 6.4 9.64 4.24 9.64C3.68 9.64 3.04 9.8 2.56 10.04C3.44 8.04 4.88 6.36 5.84 5.4L4.72 4.76C3.28 6.04 0.4 9.24 0.4 13.48ZM23.5363 11.16C25.2163 8.04 27.6163 5.96 30.8163 5.96H42.7363V57.08C42.7363 60.2 41.1363 62.68 38.8163 63H56.4163C54.0963 62.68 52.4963 60.2 52.4963 57.08V5.96H64.4163C67.6163 5.96 70.0163 8.04 71.6963 11.16H72.1763L69.6163 4.28H25.6163L23.0563 11.16H23.5363ZM61.025 21.32C63.105 21.56 64.545 23.8 64.545 26.52V57.72C64.545 60.52 63.105 62.68 61.025 63H76.625C74.545 62.68 73.105 60.52 73.105 57.72V26.52C73.105 23.8 74.545 21.56 76.625 21.32H66.385C72.065 19.96 74.625 15.48 74.625 11.64C74.545 10.44 73.985 7 70.385 7C69.585 7 68.865 7.24 68.225 7.72C69.985 3.48 74.385 1.4 78.705 1.4C87.905 1.4 90.385 9 90.385 15.96C90.385 19.4 87.505 21.32 82.785 21.32H79.265C81.345 21.56 82.785 23.8 82.785 26.52V57.72C82.785 60.52 81.345 62.68 79.265 63H94.865C92.785 62.68 91.345 60.52 91.345 57.72V34.04C91.985 26.28 95.265 23.08 98.065 23.08C101.505 23.08 102.385 27.48 102.385 32.52V57.72C102.385 60.52 101.025 62.68 98.945 63H114.545C112.465 62.68 111.025 60.52 111.025 57.72V34.2C111.585 26.28 114.945 23.08 117.745 23.08C121.185 23.08 122.065 27.48 122.065 32.52V57.72C122.065 60.52 120.625 62.68 118.545 63H134.145C132.065 62.68 130.705 60.52 130.705 57.72V32.76C130.705 23.4 125.345 20.12 120.385 20.12C116.385 20.12 112.225 23.32 110.865 29.96C109.905 22.76 105.185 20.12 100.785 20.12C96.785 20.12 92.785 22.92 91.345 29.56V15.64C91.345 7.16 87.425 0.599998 78.225 0.599998C72.305 0.599998 66.385 4.84 66.385 11.16C66.385 13.48 68.145 15.32 70.385 15.32C71.425 15.32 72.385 14.92 73.105 14.2C71.185 19.88 65.345 21.32 61.025 21.32ZM137.725 42.12C137.725 54.6 145.965 64.2 157.885 64.2C165.165 64.2 169.965 60.84 171.885 52.6H170.605C169.405 57.16 166.605 62.12 161.245 62.12C156.925 62.12 152.525 58.68 149.565 53.32C146.365 46.36 151.325 38.92 159.885 37.8C168.605 36.68 171.725 34.28 171.725 30.36C171.725 25.72 166.205 20.12 156.605 20.12C146.205 20.12 137.725 28.6 137.725 42.12ZM157.885 21.16C164.045 21.16 166.285 25.8 166.285 29C166.285 32.36 164.445 35.4 157.965 37C151.725 38.52 147.405 43.16 147.325 48.28C147.245 48.04 147.165 47.72 147.085 47.48C143.005 35.32 148.685 21.16 157.885 21.16ZM199.389 26.52V57.72C199.389 60.52 197.949 62.68 195.869 63H211.469C209.389 62.68 207.949 60.52 207.949 57.72V26.52C207.949 23.8 209.389 21.56 211.469 21.32H201.229C206.909 19.96 209.469 15.48 209.469 11.64C209.469 10.44 208.829 7 205.229 7C202.989 7 201.229 8.84 201.229 11.16C201.229 13.48 202.989 15.32 205.229 15.32C206.269 15.32 207.229 14.92 207.949 14.2C206.029 19.88 200.189 21.32 195.869 21.32C197.949 21.56 199.389 23.8 199.389 26.52ZM214.834 51.08C214.834 59.16 220.034 64.2 228.434 64.2C233.954 64.2 243.794 60.84 243.794 52.44C243.794 39.16 223.074 37 223.074 28.2C223.074 23.16 227.234 21 230.914 21C238.274 21 241.474 28.68 240.114 34.76L240.754 35C241.474 32.92 242.834 31.32 244.514 29.08C244.514 26.12 239.154 20.12 230.754 20.12C224.594 20.12 216.514 22.92 216.514 31C216.514 43.72 236.754 45.48 236.754 55.64C236.754 60.36 232.674 63.16 227.794 63.16C219.714 63.16 218.674 53.4 222.434 48.2L216.674 44.68C215.714 45.96 214.834 48.44 214.834 51.08ZM268.525 63H284.125C282.045 62.68 280.605 60.52 280.605 57.72V34.2C281.245 26.28 284.525 23.08 287.325 23.08C290.845 23.08 291.645 27.48 291.645 32.52V57.72C291.645 60.52 290.285 62.68 288.205 63H303.805C301.725 62.68 300.285 60.52 300.285 57.72V34.2C300.845 26.28 304.205 23.08 307.005 23.08C310.445 23.08 311.325 27.48 311.325 32.52V57.72C311.325 60.52 309.965 62.68 307.885 63H323.485C321.325 62.68 319.965 60.52 319.965 57.72V32.76C319.965 23.4 314.685 20.12 309.645 20.12C305.725 20.12 301.485 23.32 300.125 29.96C299.165 22.76 294.445 20.12 290.045 20.12C286.045 20.12 282.045 22.92 280.605 29.56V21.32H268.525C270.605 21.56 272.045 23.8 272.045 26.52V57.72C272.045 60.52 270.605 62.68 268.525 63ZM327.022 42.12C327.022 54.28 335.022 64.2 344.942 64.2C354.862 64.2 362.862 54.28 362.862 42.12C362.862 29.96 354.862 20.12 344.942 20.12C335.022 20.12 327.022 29.96 327.022 42.12ZM341.022 21.64C341.262 21.56 341.582 21.56 341.822 21.56C346.862 21.56 352.302 29.64 354.382 40.36C356.542 51.64 354.062 61.56 348.862 62.6C348.542 62.68 348.302 62.68 347.982 62.68C343.022 62.68 337.502 54.6 335.502 43.96C333.342 32.68 335.822 22.68 341.022 21.64ZM366.884 63H382.484C380.404 62.68 378.964 60.52 378.964 57.72V34.2C379.604 26.28 384.244 23.08 388.164 23.08C392.964 23.08 396.564 27.48 396.564 32.52V57.72C396.564 60.52 395.124 62.68 393.044 63H408.644C406.564 62.68 405.124 60.52 405.124 57.72V32.76C405.124 25.24 399.364 20.12 391.444 20.12C386.724 20.12 380.724 22.84 378.964 29.8V21.32H366.884C368.964 21.56 370.404 23.8 370.404 26.52V57.72C370.404 60.52 368.964 62.68 366.884 63ZM412.256 42.12C412.256 54.6 420.496 64.2 432.416 64.2C439.696 64.2 444.496 60.84 446.416 52.6H445.136C443.936 57.16 441.136 62.12 435.776 62.12C431.456 62.12 427.056 58.68 424.096 53.32C420.896 46.36 425.856 38.92 434.416 37.8C443.136 36.68 446.256 34.28 446.256 30.36C446.256 25.72 440.736 20.12 431.136 20.12C420.736 20.12 412.256 28.6 412.256 42.12ZM432.416 21.16C438.576 21.16 440.816 25.8 440.816 29C440.816 32.36 438.976 35.4 432.496 37C426.256 38.52 421.936 43.16 421.856 48.28C421.776 48.04 421.696 47.72 421.616 47.48C417.536 35.32 423.216 21.16 432.416 21.16ZM452.06 26.52L459.5 53.16C465.66 55.32 474.06 61 474.06 68.2C474.06 73.32 470.7 77.8 464.06 77.8C453.26 77.8 453.74 63.56 454.38 61.8L453.66 61.4C452.7 63.16 449.9 66.76 447.34 68.68C449.34 73.08 456.06 78.92 465.58 78.92C477.02 78.92 482.7 74.44 482.7 67.8C482.7 63.72 479.66 58.28 469.26 55.88C471.34 46.84 481.1 38.68 481.1 26.92C481.1 24.44 480.78 22.92 480.14 21.24H474.22C477.58 24.28 478.7 28.12 478.7 31.08C478.7 38.36 471.02 45.96 468.46 54.36L460.7 26.52C459.9 23.64 460.62 21.56 462.7 21.32H447.1C449.18 21.56 451.18 23.4 452.06 26.52ZM488.168 63.32C490.328 63.32 492.088 61.56 492.088 59.48C492.088 57.32 490.328 55.64 488.168 55.64C486.088 55.64 484.328 57.32 484.328 59.48C484.328 61.56 486.088 63.32 488.168 63.32ZM518.614 8.68C518.614 10.76 520.374 12.52 522.534 12.52C523.094 12.52 523.734 12.36 524.214 12.12C523.334 14.04 521.894 15.72 520.934 16.76L522.054 17.4C523.494 16.04 526.374 12.92 526.374 8.68C526.374 6.52 524.614 4.76 522.534 4.76C520.374 4.76 518.534 6.52 518.614 8.68ZM508.134 8.68C508.134 10.76 509.894 12.52 511.974 12.52C512.614 12.52 513.174 12.36 513.734 12.12C512.774 14.04 511.414 15.72 510.374 16.76L511.494 17.4C512.934 16.04 515.894 12.92 515.894 8.68C515.814 6.52 514.134 4.76 511.974 4.76C509.894 4.76 508.134 6.52 508.134 8.68Z" fill="#292929"/>
</svg>
