<svg width="130" height="25" viewBox="0 0 130 25" fill="none" xmlns="http://www.w3.org/2000/svg">
<path d="M4.728 11.728C4.536 11.632 4.344 11.584 3.936 11.536C3.864 11.536 3.648 11.512 3.48 11.488C3.072 11.44 2.448 11.416 1.992 11.44C1.824 11.44 1.704 11.44 1.608 11.44C1.32 11.44 1.128 11.512 1.056 11.608C1.008 11.608 0.72 12.136 0.72 12.208C0.72 12.256 0.72 12.28 0.768 12.304C0.816 12.328 0.888 12.352 0.912 12.328C0.912 12.304 1.008 12.304 1.152 12.304C2.376 12.304 3.528 12.4 4.728 12.52C4.776 12.52 4.776 12.496 4.8 12.496C4.92 12.472 4.992 12.28 4.992 12.088C4.992 11.896 4.944 11.824 4.728 11.728ZM10.9507 17.344C11.0947 16.816 11.6947 16.336 12.7508 15.832C13.0148 15.712 13.5188 15.496 13.5668 15.496C13.5668 15.496 13.6148 15.496 13.6388 15.52C13.6868 15.544 13.7348 15.544 13.7828 15.568C13.8308 15.568 13.8548 15.544 13.9028 15.544C14.0228 15.544 14.0468 15.496 14.0948 15.376L14.1428 15.28L14.3348 15.232C15.3188 14.992 16.5668 14.632 17.1668 14.512C17.6708 14.416 19.0628 14.176 19.5428 14.176C19.5668 14.152 19.5428 14.2 19.3508 14.368C17.2868 16.168 14.5028 17.992 11.6707 18.064C11.4067 18.064 11.2147 18.064 11.0707 18.016C11.0227 18.016 11.0227 17.992 10.9987 17.944C10.9747 17.92 10.9507 17.824 10.9268 17.8C10.9027 17.68 10.9027 17.464 10.9507 17.344ZM10.5427 17.872C10.7827 18.736 11.8148 19.072 12.6068 19.048C15.4388 19.024 19.6388 16.024 21.4388 14.008C21.5348 13.912 21.5828 13.864 21.7268 13.864C21.8228 13.864 22.1588 13.816 22.5188 13.744C23.0228 13.648 23.5748 13.624 24.2948 13.552C24.3668 13.552 24.3907 13.552 24.4388 13.576C24.4868 13.6 24.5108 13.6 24.5588 13.6C24.6788 13.6 24.7508 13.456 24.7268 13.336C24.7028 13.216 24.5588 13.168 24.3428 13.168C23.9828 13.168 23.0228 13.312 22.2068 13.408C22.0628 13.432 21.9428 13.432 21.9428 13.432C21.9428 13.432 21.9908 13.36 22.0388 13.312C22.6388 12.712 23.5748 10.864 23.7188 10.096C23.8628 9.304 23.7668 8.584 23.4548 7.984C22.8068 6.736 21.4388 6.424 20.1428 6.4C19.9268 6.4 19.6868 6.4 19.6148 6.424C19.5668 6.424 19.4948 6.424 19.4948 6.424C19.4948 6.424 19.7108 6.256 19.9748 6.04C20.7908 5.392 21.1748 5.056 21.5108 4.672C22.2068 3.856 22.5668 3.04 22.4948 2.416C22.3748 1.312 21.3188 1.072 20.3828 1.072C17.6948 1.072 13.6388 3.76 13.6388 6.736C13.6388 7.312 13.7348 7.528 14.0228 7.576C14.0468 7.576 14.0948 7.6 14.1188 7.576C14.1908 7.576 14.2868 7.552 14.3108 7.528C14.3828 7.456 14.3588 7.432 14.3348 7.36C14.3108 7.288 14.2628 7.264 14.1428 7.264C14.0948 7.264 14.0708 7.24 14.0708 7.216C14.0468 7.168 14.0468 6.52 14.0708 6.352C14.4308 3.76 17.8388 1.456 20.3828 1.456C20.8148 1.456 21.5828 1.504 21.8468 1.912C21.8948 1.96 21.8948 1.96 21.8468 2.224C21.6308 3.4 20.0708 4.744 19.1828 5.488C18.6068 5.968 18.4628 6.112 18.4148 6.28C18.3668 6.472 18.5348 6.76 18.7268 6.856C18.7747 6.88 18.8468 6.88 18.9188 6.904C18.9908 6.904 19.0628 6.88 19.1348 6.88C19.4948 6.88 19.8308 6.784 20.1428 6.784C20.8868 6.784 21.9188 6.952 22.4708 7.432C22.6148 7.552 22.8068 7.72 22.8308 7.792C22.8308 7.816 22.8548 7.864 22.8788 7.888C22.9508 8.008 22.9508 8.128 22.9508 8.392C22.9508 10.024 21.8948 11.632 20.8388 12.832C20.5508 13.144 20.0468 13.696 20.0228 13.696C20.0228 13.696 19.8548 13.72 19.6628 13.744C17.9588 13.96 16.2548 14.296 14.5988 14.776C14.4068 14.824 14.2388 14.848 14.2388 14.848C14.1908 14.824 14.6948 13.432 15.2228 12.088C15.2948 11.92 15.3908 11.68 15.4388 11.56C15.4868 11.44 15.5348 11.344 15.5348 11.32C15.5348 11.008 18.2468 4.672 18.6308 3.856C18.8468 3.4 18.8948 3.232 18.9188 3.088C18.9908 2.68 18.7747 2.488 18.1988 2.464C18.0308 2.464 17.9108 2.488 17.8628 2.536C17.8148 2.56 17.7908 2.632 17.7188 2.776C17.6708 2.872 17.5268 3.136 17.4068 3.352C17.1668 3.784 16.9748 4.24 16.7588 4.792C16.2308 6.16 15.9908 6.616 15.6068 7.576C15.1508 8.752 13.2068 13.696 13.2068 14.8C13.2068 14.968 13.2068 14.992 13.2308 15.088C13.2548 15.136 13.2788 15.184 13.2548 15.184C13.2548 15.184 13.1828 15.208 13.1108 15.256C12.7748 15.472 12.1748 15.664 11.8388 15.88C11.0947 16.36 10.6147 16.816 10.5187 17.368C10.4947 17.488 10.5187 17.752 10.5427 17.872ZM23.7639 13.528C23.7639 13.576 23.7639 13.624 23.7639 13.696C23.8359 14.344 24.4359 14.632 25.0359 14.632C25.2519 14.632 25.3959 14.632 25.7079 14.56C26.1879 14.44 26.5719 14.272 27.4839 13.864C27.6999 13.768 27.9159 13.648 27.9879 13.624C28.0839 13.6 28.2279 13.528 28.3239 13.48C28.5159 13.384 29.1879 13.144 29.3559 13.072C29.4039 13.048 29.4759 13.024 29.4759 13.024C29.5959 12.952 29.5959 12.76 29.4759 12.712C29.4519 12.712 29.4279 12.688 29.4039 12.712C29.3559 12.712 29.2839 12.712 29.2119 12.736C28.4679 12.976 27.7239 13.312 27.0279 13.672C26.4039 13.984 25.7319 14.272 25.0359 14.272C24.8439 14.272 24.8439 14.248 24.7959 14.176C24.6999 14.032 24.7239 13.72 24.8199 13.36C24.8679 13.192 24.9399 12.952 24.9639 12.952C25.6839 12.76 26.9319 12.304 27.0999 11.464C27.1719 11.08 27.0279 10.864 26.6439 10.744C26.5719 10.72 26.4999 10.72 26.3559 10.72C26.3079 10.72 26.2599 10.72 26.2119 10.72C25.0839 10.792 23.9079 12.232 23.7639 13.36C23.7639 13.432 23.7639 13.504 23.7639 13.528ZM25.3719 12.256C25.5879 11.992 26.0199 11.608 26.3079 11.44C26.4519 11.368 26.7159 11.224 26.7159 11.248C26.7159 11.8 25.8759 12.352 25.3719 12.472C25.2759 12.496 25.2039 12.52 25.2039 12.52C25.1799 12.496 25.2759 12.376 25.3719 12.256ZM28.8677 14.704C28.8677 14.968 28.9397 15.112 29.1797 15.232C29.2997 15.304 29.3717 15.304 29.4197 15.28C29.5637 15.28 29.6357 15.136 29.7077 15.016C30.1397 14.128 31.8197 12.616 32.8037 12.16C33.0197 12.064 33.3077 11.944 33.4037 11.944H33.4277V12.088C33.4277 12.16 33.4037 12.4 33.3557 12.64C33.2357 13.24 33.2357 13.576 33.3317 13.912C33.4997 14.512 33.8597 14.776 34.4837 14.776C34.7477 14.776 34.8917 14.752 35.1557 14.632C35.4197 14.512 36.7877 13.552 36.8597 13.36C36.8837 13.264 36.8357 13.192 36.7397 13.144C36.7157 13.12 36.6917 13.12 36.6677 13.12C36.5957 13.12 36.5237 13.168 36.4037 13.288C36.0677 13.624 35.0357 14.416 34.5317 14.416C34.2437 14.416 34.1237 14.2 34.1237 13.936C34.1237 13.744 34.1717 13.576 34.2677 13.168C34.3637 12.736 34.4117 12.592 34.4117 12.4C34.4117 11.872 34.1717 11.56 33.6197 11.536C33.5717 11.536 33.4997 11.56 33.4277 11.56C32.7317 11.584 31.6037 12.4 31.0757 12.88C30.8837 13.072 30.3797 13.576 30.1397 13.816C30.0677 13.888 30.0197 13.936 30.0197 13.936C30.0197 13.936 30.0437 13.816 30.1157 13.648C30.1877 13.48 30.2357 13.36 30.2357 13.336C30.2597 13.288 30.4517 12.832 30.4997 12.688C30.5717 12.496 30.7157 12.16 30.8597 11.8C31.0277 11.368 31.1237 11.08 31.0757 10.912C31.0277 10.72 30.8597 10.6 30.6197 10.576C30.5717 10.576 30.5477 10.576 30.4997 10.576C30.3557 10.576 30.1877 10.72 30.1397 10.864C30.1157 10.912 30.0677 10.984 30.0437 11.008C29.4197 11.824 29.0357 13.408 28.8677 14.44C28.8677 14.464 28.8677 14.584 28.8677 14.704ZM30.2533 24.976C31.7653 24.976 33.3253 23.248 34.0933 22.096C35.2453 20.368 36.5173 17.392 37.0213 15.4L37.0693 15.208L37.3333 15.088C38.9653 14.344 40.0933 13.792 40.5733 13.216C40.6933 13.072 40.7173 13.024 40.6693 12.928C40.6453 12.856 40.5973 12.808 40.5253 12.808C40.4293 12.808 40.3813 12.832 40.2613 12.976C39.9253 13.36 39.3253 13.744 38.4133 14.2C38.1253 14.344 37.1893 14.752 37.1893 14.752C37.1893 14.752 37.2373 14.536 37.2853 14.296C37.4293 13.528 37.5493 13 37.6213 12.4C37.6453 12.232 37.6933 11.944 37.7173 11.8C37.7893 11.344 37.8133 11.128 37.8133 10.696C37.8133 10.264 37.7893 10.264 37.7173 10.168C37.6453 10.072 37.5493 10.048 37.4293 10.048C37.2133 10.048 37.0693 10.144 36.9733 10.384C36.9253 10.528 36.8773 10.72 36.7573 11.392C36.4933 12.928 36.3493 13.48 36.1573 14.248C36.1093 14.44 35.9173 15.016 35.8933 15.184L35.8693 15.304L35.6053 15.4C33.0853 16.312 27.9253 19.144 27.8053 22.288C27.8053 23.944 28.5733 24.976 30.2533 24.976ZM28.6213 20.992C29.7013 18.784 32.4373 17.272 34.5733 16.264C34.9333 16.096 35.7013 15.76 35.7253 15.76C35.7253 15.784 35.3893 16.768 35.1973 17.272C34.2133 19.888 32.4853 23.2 29.7013 24.256C29.5573 24.304 29.3413 24.352 29.2213 24.352C28.6453 24.352 28.2133 23.2 28.2133 22.648C28.1893 22.024 28.3093 21.64 28.6213 20.992ZM37.6213 9.448C37.6933 9.472 37.7653 9.52 37.8613 9.496C37.8853 9.496 37.9333 9.496 37.9573 9.496C38.3173 9.496 38.5333 9.088 38.3653 8.776C38.2693 8.608 38.1013 8.488 37.9093 8.488C37.6693 8.488 37.3813 8.608 37.3093 8.872C37.2613 9.112 37.3813 9.352 37.6213 9.448ZM39.5691 15.208C39.6171 15.592 39.9771 15.784 40.3371 15.784C40.3851 15.784 40.4811 15.76 40.5291 15.736C40.6491 15.688 40.9131 15.544 41.1291 15.352C41.3451 15.16 42.1131 14.44 42.9771 13.648C43.9611 12.736 44.5611 12.184 44.5851 12.208C44.6091 12.208 44.6571 12.496 44.7291 12.88C44.8011 13.264 44.8251 13.504 44.8971 13.672C45.0171 13.936 45.1851 14.176 45.3291 14.296C45.4731 14.416 45.6891 14.464 45.8331 14.464C46.3851 14.464 47.5611 13.264 47.5611 12.952C47.5611 12.856 47.4171 12.784 47.3211 12.808C47.2491 12.832 47.2011 12.88 47.0091 13.144C46.9371 13.264 46.2171 14.008 46.0971 14.008C45.8331 14.008 45.6411 12.832 45.6171 12.664C45.5451 12.256 45.4491 11.728 44.9211 11.728C44.8251 11.728 44.8011 11.728 44.7291 11.752C44.6571 11.776 44.6091 11.8 44.5851 11.8C44.4651 11.8 44.1291 12.04 43.4571 12.688C43.1691 12.952 40.6731 15.352 40.4811 15.352C40.4571 15.328 40.4571 15.256 40.4571 15.136C40.4571 13.792 43.0971 11.008 44.4651 10.912C44.5131 10.912 44.5611 10.912 44.5851 10.936C44.6331 10.984 44.7291 11.08 44.7771 11.224C44.8491 11.44 44.8971 11.512 45.0171 11.512C45.0411 11.512 45.0411 11.512 45.0651 11.512C45.1851 11.512 45.2571 11.368 45.1851 11.272C45.1611 11.248 45.1371 11.176 45.1371 11.128C45.1371 11.008 44.9211 10.696 44.8251 10.624C44.5371 10.408 44.3451 10.408 44.0331 10.408C43.9371 10.408 43.8651 10.408 43.8171 10.384C43.6971 10.384 43.6011 10.408 43.4091 10.48C41.8491 11.032 39.8331 12.904 39.5691 14.656C39.5451 14.824 39.5451 15.088 39.5691 15.208ZM46.6282 16.336C46.6762 16.528 46.8202 16.6 47.0122 16.6C47.2523 16.6 47.3003 16.552 47.4683 16.072C47.6363 15.568 47.7563 15.304 48.1883 14.608C48.7883 13.648 49.5083 12.832 50.0363 12.136C50.1562 11.968 50.7083 11.464 50.7083 11.488C50.7083 11.488 50.7083 11.608 50.6842 11.728C50.5883 12.184 50.6363 12.4 50.6363 12.832C50.6363 13.384 50.6363 14.248 51.4043 14.248C51.5483 14.248 51.5723 14.248 51.5963 14.224C51.6203 14.2 51.6683 14.128 51.7163 14.056C52.1723 13.36 52.3403 12.904 52.9163 12.184C53.0843 11.992 54.5483 10.288 54.7883 10.288C54.7883 10.432 54.7643 10.912 54.7403 11.008C54.7163 11.104 54.6683 11.848 54.6683 12.04C54.6683 13.096 55.0763 14.872 56.4203 14.872C57.1883 14.872 58.2923 13.84 58.6523 13.144C58.7003 13.048 58.7003 12.928 58.5803 12.88C58.5323 12.856 58.5083 12.856 58.4603 12.856C58.4123 12.856 58.3643 12.88 58.3163 12.952C58.0043 13.432 57.1643 14.488 56.4923 14.464C55.6763 14.44 55.5803 13.432 55.5803 12.808C55.5803 12.52 55.6043 12.448 55.6763 11.8C55.7723 10.912 55.7723 10.792 55.7723 10.48C55.7723 10.144 55.6763 9.688 55.2443 9.688C54.3563 9.688 52.1483 12.352 51.7643 13.12C51.7403 13.168 51.7163 13.24 51.6923 13.24C51.6923 13.24 51.7163 12.808 51.7643 12.448C51.8603 11.728 51.8363 11.368 51.7643 11.128C51.7163 10.936 51.5963 10.816 51.4283 10.792C51.4043 10.792 51.3803 10.792 51.3323 10.792C51.1403 10.792 50.9003 10.888 50.6123 11.08C49.6523 11.704 48.3323 13.432 47.8523 14.416C47.7803 14.56 47.7323 14.584 47.7563 14.56C47.7563 14.248 49.0523 11.296 49.2443 10.888C49.8203 9.64 49.9643 9.352 49.9643 9.088C49.9643 8.728 49.8203 8.584 49.4603 8.584C49.3883 8.584 49.3403 8.584 49.2923 8.608C49.2683 8.632 49.2443 8.632 49.2203 8.632C49.0523 8.632 48.3083 10.192 48.2123 10.432C47.6363 11.68 46.6282 13.936 46.6282 15.328C46.6282 15.472 46.6042 15.616 46.6042 15.664C46.6042 15.832 46.6042 16.264 46.6282 16.336ZM61.0256 9.76C61.3136 9.472 61.2416 9.04 60.8576 8.872C60.7616 8.824 60.6896 8.824 60.5936 8.824C60.3296 8.824 60.0896 8.968 59.9936 9.232C59.9696 9.328 59.9696 9.472 60.0176 9.592C60.1136 9.808 60.3296 9.952 60.5696 9.928C60.7376 9.928 60.9056 9.88 61.0256 9.76ZM59.2016 15.04C59.4656 15.04 59.7776 14.968 60.1136 14.824C60.3056 14.752 60.4256 14.656 60.7376 14.44C61.0016 14.248 61.1696 14.152 61.4816 13.912C62.0576 13.48 62.3696 13.144 62.4176 13.072C62.4896 12.952 62.3936 12.808 62.2496 12.808C62.2016 12.808 62.0576 12.88 62.0576 12.904C62.0576 13.024 60.5696 14.104 60.2576 14.32C59.9696 14.536 59.5376 14.68 59.2736 14.656C59.2256 14.656 59.2016 14.656 59.1776 14.656C59.1296 14.656 59.1296 14.656 59.1296 14.608C59.1296 13.936 59.7296 12.4 60.0656 11.776C60.2576 11.416 60.2576 11.32 60.2576 11.152C60.2576 11.008 60.2576 10.984 60.2336 10.936C60.1376 10.744 59.9456 10.624 59.7536 10.648C59.6096 10.648 59.4896 10.648 59.3696 10.768C58.9376 11.2 58.1936 12.856 58.1936 13.504C58.1696 13.696 58.2176 14.08 58.2656 14.296C58.3616 14.728 58.7936 15.016 59.2016 15.04ZM61.7505 14.704C61.7505 14.968 61.8225 15.112 62.0625 15.232C62.1825 15.304 62.2545 15.304 62.3025 15.28C62.4465 15.28 62.5185 15.136 62.5905 15.016C63.0225 14.128 64.7025 12.616 65.6865 12.16C65.9025 12.064 66.1905 11.944 66.2865 11.944H66.3105V12.088C66.3105 12.16 66.2865 12.4 66.2385 12.64C66.1185 13.24 66.1185 13.576 66.2145 13.912C66.3825 14.512 66.7425 14.776 67.3665 14.776C67.6305 14.776 67.7745 14.752 68.0385 14.632C68.3025 14.512 69.6705 13.552 69.7425 13.36C69.7665 13.264 69.7185 13.192 69.6225 13.144C69.5985 13.12 69.5745 13.12 69.5505 13.12C69.4785 13.12 69.4065 13.168 69.2865 13.288C68.9505 13.624 67.9185 14.416 67.4145 14.416C67.1265 14.416 67.0065 14.2 67.0065 13.936C67.0065 13.744 67.0545 13.576 67.1505 13.168C67.2465 12.736 67.2945 12.592 67.2945 12.4C67.2945 11.872 67.0545 11.56 66.5025 11.536C66.4545 11.536 66.3825 11.56 66.3105 11.56C65.6145 11.584 64.4865 12.4 63.9585 12.88C63.7665 13.072 63.2625 13.576 63.0225 13.816C62.9505 13.888 62.9025 13.936 62.9025 13.936C62.9025 13.936 62.9265 13.816 62.9985 13.648C63.0705 13.48 63.1185 13.36 63.1185 13.336C63.1425 13.288 63.3345 12.832 63.3825 12.688C63.4545 12.496 63.5985 12.16 63.7425 11.8C63.9105 11.368 64.0065 11.08 63.9585 10.912C63.9105 10.72 63.7425 10.6 63.5025 10.576C63.4545 10.576 63.4305 10.576 63.3825 10.576C63.2385 10.576 63.0705 10.72 63.0225 10.864C62.9985 10.912 62.9505 10.984 62.9265 11.008C62.3025 11.824 61.9185 13.408 61.7505 14.44C61.7505 14.464 61.7505 14.584 61.7505 14.704ZM79.6961 15.76C79.6001 16.6 79.3601 17.896 78.7121 18.544C78.6401 18.616 78.5201 18.712 78.4961 18.712C78.4721 18.688 78.4481 18.376 78.4241 18.088C78.4001 17.824 78.4001 17.608 78.4241 17.488C78.4241 17.464 78.4241 17.368 78.4481 17.272C78.5921 16.672 78.7121 15.472 78.9281 14.536C79.1441 13.6 79.3361 12.928 79.3841 12.808C79.4081 12.76 79.5521 13.432 79.6001 13.864C79.6721 14.536 79.7441 15.328 79.6961 15.76ZM76.7201 6.856C76.5521 6.712 76.4321 6.592 76.4321 6.568C76.4321 6.52 77.0081 6.04 77.3921 5.8C77.9681 5.44 79.0961 4.792 79.8641 4.504C80.7041 4.192 81.5201 3.856 81.5201 3.88C81.5441 3.88 81.4961 3.976 81.4481 4.12C81.4001 4.24 81.3041 4.456 81.2561 4.576C80.6561 6.04 80.0801 7.528 79.6241 9.04C79.5761 9.184 79.4321 9.424 79.3841 9.664L79.3601 9.784L79.0481 9.832C78.8801 9.856 78.7361 9.88 78.7361 9.88C78.7361 9.88 78.7121 9.832 78.6881 9.76C78.3761 8.848 77.4161 7.528 76.7201 6.856ZM75.6641 11.848C75.7121 11.872 75.7361 11.896 75.7841 11.896C75.8801 11.896 75.9761 11.848 76.1681 11.776C77.0321 11.464 77.8721 11.152 78.7601 10.912C78.7841 10.912 78.8801 11.128 78.8801 11.176C78.8801 11.272 78.3521 12.904 78.2321 13.288C78.1601 13.504 78.0881 13.84 78.0401 14.008C77.8481 14.704 77.6801 15.376 77.5601 16.072C77.3921 17.032 77.3681 17.704 77.4881 18.304C77.5601 18.688 77.6561 18.928 78.0641 19.048C78.1361 19.072 78.2081 19.096 78.2801 19.072C79.4801 19.024 79.9841 16.696 80.0561 15.784C80.0801 15.568 80.0801 15.016 80.0561 14.752C79.9841 13.96 79.8641 13.096 79.6721 12.376C79.6481 12.256 79.6001 12.136 79.6241 12.112C79.6481 11.992 80.1041 10.6 80.1281 10.6C80.3441 10.384 83.4881 10.072 84.0881 10.072C84.5921 10.072 84.7361 10.096 84.8561 10.144C84.9521 10.192 84.9761 10.192 85.0001 10.192C85.1921 10.168 85.2401 9.952 85.0961 9.856C84.5441 9.496 83.2481 9.472 82.5761 9.472C81.8801 9.472 81.1601 9.496 80.4641 9.592C80.4401 9.568 81.1121 7.744 81.4241 6.952C81.4721 6.808 81.6161 6.472 81.7361 6.232C81.8561 5.992 81.9521 5.656 82.0001 5.536C82.1201 5.248 82.3601 4.648 82.5281 4.288C82.7921 3.712 82.8401 3.544 82.8401 3.544C83.1281 3.256 86.2241 2.824 87.0401 2.728C88.0961 2.584 89.1281 2.536 90.1841 2.512C90.5681 2.512 90.8801 2.536 91.0241 2.56C91.1921 2.584 91.2881 2.656 91.2881 2.68C91.3121 2.752 91.3121 2.776 91.3601 2.8C91.4081 2.824 91.4801 2.8 91.5281 2.704C91.5761 2.608 91.6001 2.56 91.5761 2.44C91.4561 1.888 90.5441 1.768 90.1121 1.744C89.8721 1.72 88.8401 1.72 88.4321 1.72C87.2561 1.72 86.1041 1.936 84.5681 2.248C84.1841 2.32 83.3441 2.488 83.2961 2.488C83.4641 2.104 83.5601 1.816 83.5601 1.696C83.5601 1.624 83.5841 1.6 83.5601 1.552C83.4881 1.432 83.4161 1.408 83.1041 1.384C83.0321 1.384 82.9601 1.384 82.9121 1.384C82.6961 1.384 82.6481 1.432 82.5521 1.576C82.5041 1.648 82.1681 2.32 82.1681 2.392C82.1441 2.416 82.0001 2.728 82.0001 2.776L81.9761 2.824L81.4961 2.968C80.0801 3.4 76.5281 4.624 75.8801 6.064C75.7841 6.304 75.8081 6.448 75.8801 6.592C75.9281 6.688 75.9761 6.712 76.2881 6.952C77.0081 7.504 77.5361 8.344 77.9681 9.136C78.2321 9.592 78.4001 9.952 78.3761 9.976C78.3761 9.976 78.2561 10 78.0881 10.048C76.8161 10.408 75.9761 10.648 75.6161 10.984C75.4721 11.104 75.3521 11.248 75.3281 11.344C75.3281 11.392 75.3281 11.464 75.3761 11.536C75.4721 11.68 75.4961 11.8 75.6641 11.848ZM83.7654 16.264C83.7654 16.48 84.0294 16.768 84.2454 16.768C84.5094 16.768 84.5814 16.648 84.6534 16.384C84.7974 15.808 84.9894 15.208 85.1814 14.656C85.6374 13.36 87.3414 11.176 88.6854 10.6C88.7334 10.576 88.7814 10.552 88.8054 10.552C88.8534 10.552 88.8054 10.624 88.6854 10.84C88.2774 11.584 87.9894 12.184 87.9414 12.592C87.9174 12.784 87.9414 13.12 87.9894 13.264C88.1334 13.696 88.5174 14.056 88.9734 14.056C89.4294 14.056 90.0534 13.576 90.3894 13.312C90.7974 12.976 90.8934 12.928 90.8454 12.808C90.8214 12.736 90.7494 12.688 90.7014 12.688C90.5814 12.688 90.5334 12.736 90.4134 12.808C90.0534 13.072 89.6934 13.384 89.4774 13.504C89.3094 13.6 89.1414 13.672 88.9494 13.696C88.9014 13.696 88.8294 13.672 88.8054 13.648C88.7334 13.576 88.7094 13.504 88.7094 13.36C88.7094 13 88.8294 12.688 89.3334 11.728C89.6934 11.056 89.7894 10.84 89.7894 10.624C89.7894 10.336 89.5974 10.168 89.2854 10.12C89.2374 10.12 89.2134 10.12 89.1654 10.12C88.1814 10.12 86.8614 11.368 86.2854 12.16C86.2854 12.16 86.2134 12.256 86.1654 12.328C86.1654 12.304 86.5014 11.56 86.8374 10.816C87.1974 10.024 87.2934 9.736 87.3414 9.448C87.4134 9.064 87.2214 8.848 86.8614 8.848C86.6694 8.848 86.5734 8.896 86.5254 9.016C86.5014 9.064 86.4534 9.16 86.4054 9.232C86.1174 9.688 85.4214 11.344 84.9414 12.52C84.7734 12.928 84.4134 13.984 84.2934 14.32C84.1734 14.68 83.7654 15.904 83.7654 16.264ZM89.7253 15.208C89.7733 15.592 90.1333 15.784 90.4933 15.784C90.5413 15.784 90.6373 15.76 90.6853 15.736C90.8053 15.688 91.0693 15.544 91.2853 15.352C91.5013 15.16 92.2693 14.44 93.1333 13.648C94.1173 12.736 94.7173 12.184 94.7413 12.208C94.7653 12.208 94.8133 12.496 94.8853 12.88C94.9573 13.264 94.9813 13.504 95.0533 13.672C95.1733 13.936 95.3413 14.176 95.4853 14.296C95.6293 14.416 95.8453 14.464 95.9893 14.464C96.5413 14.464 97.7173 13.264 97.7173 12.952C97.7173 12.856 97.5733 12.784 97.4773 12.808C97.4053 12.832 97.3573 12.88 97.1653 13.144C97.0933 13.264 96.3733 14.008 96.2533 14.008C95.9893 14.008 95.7973 12.832 95.7733 12.664C95.7013 12.256 95.6053 11.728 95.0773 11.728C94.9813 11.728 94.9573 11.728 94.8853 11.752C94.8133 11.776 94.7653 11.8 94.7413 11.8C94.6213 11.8 94.2853 12.04 93.6133 12.688C93.3253 12.952 90.8293 15.352 90.6373 15.352C90.6133 15.328 90.6133 15.256 90.6133 15.136C90.6133 13.792 93.2533 11.008 94.6213 10.912C94.6693 10.912 94.7173 10.912 94.7413 10.936C94.7893 10.984 94.8853 11.08 94.9333 11.224C95.0053 11.44 95.0533 11.512 95.1733 11.512C95.1973 11.512 95.1973 11.512 95.2213 11.512C95.3413 11.512 95.4133 11.368 95.3413 11.272C95.3173 11.248 95.2933 11.176 95.2933 11.128C95.2933 11.008 95.0773 10.696 94.9813 10.624C94.6933 10.408 94.5013 10.408 94.1893 10.408C94.0933 10.408 94.0213 10.408 93.9733 10.384C93.8533 10.384 93.7573 10.408 93.5653 10.48C92.0053 11.032 89.9893 12.904 89.7253 14.656C89.7013 14.824 89.7013 15.088 89.7253 15.208ZM97.0005 14.704C97.0005 14.968 97.0725 15.112 97.3125 15.232C97.4325 15.304 97.5045 15.304 97.5525 15.28C97.6965 15.28 97.7685 15.136 97.8405 15.016C98.2725 14.128 99.9525 12.616 100.937 12.16C101.153 12.064 101.441 11.944 101.537 11.944H101.561V12.088C101.561 12.16 101.537 12.4 101.489 12.64C101.369 13.24 101.369 13.576 101.465 13.912C101.633 14.512 101.993 14.776 102.617 14.776C102.881 14.776 103.025 14.752 103.289 14.632C103.553 14.512 104.921 13.552 104.993 13.36C105.017 13.264 104.969 13.192 104.873 13.144C104.849 13.12 104.825 13.12 104.801 13.12C104.729 13.12 104.657 13.168 104.537 13.288C104.201 13.624 103.169 14.416 102.665 14.416C102.377 14.416 102.257 14.2 102.257 13.936C102.257 13.744 102.305 13.576 102.401 13.168C102.497 12.736 102.545 12.592 102.545 12.4C102.545 11.872 102.305 11.56 101.753 11.536C101.705 11.536 101.633 11.56 101.561 11.56C100.865 11.584 99.7365 12.4 99.2085 12.88C99.0165 13.072 98.5125 13.576 98.2725 13.816C98.2005 13.888 98.1525 13.936 98.1525 13.936C98.1525 13.936 98.1765 13.816 98.2485 13.648C98.3205 13.48 98.3685 13.36 98.3685 13.336C98.3925 13.288 98.5845 12.832 98.6325 12.688C98.7045 12.496 98.8485 12.16 98.9925 11.8C99.1605 11.368 99.2565 11.08 99.2085 10.912C99.1605 10.72 98.9925 10.6 98.7525 10.576C98.7045 10.576 98.6805 10.576 98.6325 10.576C98.4885 10.576 98.3205 10.72 98.2725 10.864C98.2485 10.912 98.2005 10.984 98.1765 11.008C97.5525 11.824 97.1685 13.408 97.0005 14.44C97.0005 14.464 97.0005 14.584 97.0005 14.704ZM103.906 16.84C104.002 16.984 104.146 17.032 104.314 17.056C104.362 17.056 104.434 17.032 104.458 17.032C104.53 17.032 104.578 16.96 104.602 16.912C104.626 16.888 104.65 16.744 104.674 16.6C104.77 16.024 104.794 15.64 105.25 14.392C105.322 14.2 105.418 13.888 105.466 13.744C105.562 13.432 105.706 13 105.73 12.976C105.73 12.976 105.754 13 105.778 13.024C106.45 14.08 107.794 14.752 109.042 14.8C109.138 14.8 109.21 14.776 109.33 14.776C110.218 14.752 111.97 13.864 112.546 13.12C112.618 13.024 112.57 12.856 112.45 12.808C112.354 12.784 112.282 12.808 112.21 12.904C111.754 13.504 110.698 14.056 109.978 14.296C109.69 14.392 109.33 14.44 108.97 14.416C107.962 14.416 106.522 13.648 106.042 12.712C106.042 12.688 106.066 12.688 106.138 12.664C107.29 12.28 109.714 10.816 110.554 9.832C110.698 9.664 110.986 9.328 111.178 9.088C111.466 8.728 111.634 8.44 111.634 8.152C111.634 8.008 111.634 7.912 111.562 7.816C111.49 7.72 111.394 7.672 111.298 7.696C111.274 7.696 111.226 7.696 111.202 7.696C111.106 7.696 111.082 7.72 111.01 7.768C110.986 7.792 110.914 7.888 110.89 7.936C110.266 9.16 109.018 10.12 107.962 10.936C107.53 11.272 105.994 12.28 105.994 12.256C105.97 12.256 106.402 11.2 106.666 10.552C107.098 9.496 107.53 8.44 108.01 7.384C108.25 6.856 108.49 6.304 108.562 6.136C108.706 5.824 108.874 5.44 109.162 4.888C109.33 4.576 109.522 4.288 109.93 3.472C110.002 3.328 110.074 3.16 110.122 3.064C110.29 2.752 110.362 2.632 110.602 2.176C110.962 1.48 111.058 1.288 111.058 1.048C111.058 0.927999 111.058 0.904 111.01 0.831999C110.938 0.711999 110.866 0.663999 110.722 0.663999C110.698 0.663999 110.65 0.663999 110.626 0.663999C110.554 0.663999 110.458 0.663999 110.434 0.663999C110.362 0.663999 110.29 0.711999 110.242 0.783998C110.218 0.808 110.17 0.831999 110.146 0.855999C110.122 0.879999 110.098 0.927999 110.098 0.951999C110.074 0.999999 110.002 1.12 109.93 1.24C109.33 2.248 108.778 3.304 108.226 4.36C107.65 5.464 106.786 7.168 106.426 8.248C106.402 8.32 106.306 8.512 106.234 8.656C105.634 9.88 105.682 9.976 105.106 11.488C104.602 12.808 103.954 14.56 103.786 15.952C103.738 16.384 103.762 16.648 103.906 16.84ZM112.003 16.168C112.147 17.272 112.675 18.472 113.947 18.448C115.075 18.424 116.035 16.864 116.515 15.976C116.683 15.664 117.115 14.776 117.379 14.32C117.475 14.176 118.123 13 118.123 12.928C118.147 12.832 118.027 12.712 117.907 12.736C117.787 12.76 117.763 12.808 117.427 13.408C117.259 13.696 117.091 14.056 117.019 14.2C116.659 14.896 116.155 15.856 115.915 16.24C115.459 16.96 114.739 18.112 113.779 18.088C113.707 18.088 113.659 18.088 113.587 18.064L113.515 18.04L113.467 17.944C113.443 17.896 113.419 17.848 113.395 17.8C113.347 17.752 113.323 17.704 113.275 17.56C113.155 17.2 113.155 16.84 113.155 16.192C113.155 14.104 113.779 11.416 114.571 9.52C114.643 9.376 114.739 9.088 114.787 8.92C115.075 7.936 115.579 7.072 116.011 6.16C116.323 5.488 116.443 5.224 116.731 4.696C117.043 4.12 117.571 3.184 117.811 2.752C118.219 2.008 118.435 1.624 118.507 1.384C118.603 1.072 118.435 0.759999 118.147 0.735999C118.099 0.735999 118.051 0.735999 118.027 0.711999C118.003 0.711999 117.955 0.688 117.955 0.688C117.883 0.688 117.787 0.735999 117.739 0.808C115.363 4.384 112.651 9.64 112.051 13.984C112.003 14.368 112.003 14.536 111.979 14.752C111.931 15.184 111.955 15.76 112.003 16.168ZM120.393 9.76C120.681 9.472 120.609 9.04 120.225 8.872C120.129 8.824 120.057 8.824 119.961 8.824C119.697 8.824 119.457 8.968 119.361 9.232C119.337 9.328 119.337 9.472 119.385 9.592C119.481 9.808 119.697 9.952 119.937 9.928C120.105 9.928 120.273 9.88 120.393 9.76ZM118.569 15.04C118.833 15.04 119.145 14.968 119.481 14.824C119.673 14.752 119.793 14.656 120.105 14.44C120.369 14.248 120.537 14.152 120.849 13.912C121.425 13.48 121.737 13.144 121.785 13.072C121.857 12.952 121.761 12.808 121.617 12.808C121.569 12.808 121.425 12.88 121.425 12.904C121.425 13.024 119.937 14.104 119.625 14.32C119.337 14.536 118.905 14.68 118.641 14.656C118.593 14.656 118.569 14.656 118.545 14.656C118.497 14.656 118.497 14.656 118.497 14.608C118.497 13.936 119.097 12.4 119.433 11.776C119.625 11.416 119.625 11.32 119.625 11.152C119.625 11.008 119.625 10.984 119.601 10.936C119.505 10.744 119.313 10.624 119.121 10.648C118.977 10.648 118.857 10.648 118.737 10.768C118.305 11.2 117.561 12.856 117.561 13.504C117.537 13.696 117.585 14.08 117.633 14.296C117.729 14.728 118.161 15.016 118.569 15.04ZM121.118 14.704C121.118 14.968 121.19 15.112 121.43 15.232C121.55 15.304 121.622 15.304 121.67 15.28C121.814 15.28 121.886 15.136 121.958 15.016C122.39 14.128 124.07 12.616 125.054 12.16C125.27 12.064 125.558 11.944 125.654 11.944H125.678V12.088C125.678 12.16 125.654 12.4 125.606 12.64C125.486 13.24 125.486 13.576 125.582 13.912C125.75 14.512 126.11 14.776 126.734 14.776C126.998 14.776 127.142 14.752 127.406 14.632C127.67 14.512 129.038 13.552 129.11 13.36C129.134 13.264 129.086 13.192 128.99 13.144C128.966 13.12 128.942 13.12 128.918 13.12C128.846 13.12 128.774 13.168 128.654 13.288C128.318 13.624 127.286 14.416 126.782 14.416C126.494 14.416 126.374 14.2 126.374 13.936C126.374 13.744 126.422 13.576 126.518 13.168C126.614 12.736 126.662 12.592 126.662 12.4C126.662 11.872 126.422 11.56 125.87 11.536C125.822 11.536 125.75 11.56 125.678 11.56C124.982 11.584 123.854 12.4 123.326 12.88C123.134 13.072 122.63 13.576 122.39 13.816C122.318 13.888 122.27 13.936 122.27 13.936C122.27 13.936 122.294 13.816 122.366 13.648C122.438 13.48 122.486 13.36 122.486 13.336C122.51 13.288 122.702 12.832 122.75 12.688C122.822 12.496 122.966 12.16 123.11 11.8C123.278 11.368 123.374 11.08 123.326 10.912C123.278 10.72 123.11 10.6 122.87 10.576C122.822 10.576 122.798 10.576 122.75 10.576C122.606 10.576 122.438 10.72 122.39 10.864C122.366 10.912 122.318 10.984 122.294 11.008C121.67 11.824 121.286 13.408 121.118 14.44C121.118 14.464 121.118 14.584 121.118 14.704Z" fill="#292929"/>
</svg>
