<svg width="76" height="66" viewBox="0 0 76 66" fill="none" xmlns="http://www.w3.org/2000/svg">
<path d="M16.2863 0C15.2702 0 14.3438 0.331241 13.6847 0.987418C13.0265 1.6436 12.6667 2.59513 12.6667 3.61081V10.8332H7.23777C6.7638 10.8332 6.33274 11.2633 6.33274 11.7363V27.0834H0.734758C0.320112 27.1621 -0.00744864 27.5652 0.000128856 27.9864V46.0421C0.000128856 46.515 0.43119 46.9451 0.905163 46.9451H23.5246C29.0222 46.9445 33.4768 42.4999 33.4768 37.0142C33.4768 31.528 29.0224 27.0833 23.5239 27.0833H8.14288V12.6384H68.7628C70.5375 12.6384 72.1362 11.9249 73.2867 10.7479V30.6946C73.2798 31.1713 73.7134 31.6102 74.1918 31.6102C74.6695 31.6102 75.1031 31.1713 75.0968 30.6946V6.31944C75.0968 6.28985 75.0974 6.26466 75.0968 6.23506C75.0993 6.19728 75.0993 6.15949 75.0968 6.12234C74.987 2.73191 72.1867 2.2139e-05 68.7629 2.2139e-05L16.2863 0ZM16.2863 1.8054H68.7633C71.2361 1.8054 73.2114 3.73107 73.2872 6.17825C73.2859 6.20659 73.2859 6.23493 73.2872 6.26264V6.31931C73.2872 8.83566 71.2852 10.8332 68.7633 10.8332H14.4767V3.61081C14.4767 2.98989 14.668 2.5453 14.9577 2.25689C15.2467 1.96847 15.6653 1.8054 16.2863 1.8054ZM1.80957 28.8889H23.5242C28.0513 28.8889 31.6668 32.4973 31.6668 37.0136C31.6668 41.5307 28.0505 45.1383 23.5242 45.1383H1.80957V28.8889ZM24.429 35.2082C23.44 35.2082 22.6196 36.0275 22.6196 37.0136C22.6196 37.9997 23.4406 38.819 24.429 38.819C25.4179 38.819 26.2383 37.9997 26.2383 37.0136C26.2383 36.0274 25.4173 35.2082 24.429 35.2082ZM74.0785 35.2365C73.6437 35.2913 73.2833 35.7019 73.2871 36.1396L73.2865 37.0143C73.2795 37.491 73.7131 37.9299 74.1915 37.9299C74.6693 37.9299 75.1028 37.491 75.0965 37.0143V36.1396C75.1003 35.627 74.5885 35.1729 74.0785 35.2365ZM7.12529 50.5277C6.68035 50.5831 6.31556 51.012 6.33324 51.4585V62.2917C6.33324 62.7646 6.7643 63.1947 7.23827 63.1947H48.8579C49.3357 63.2017 49.7756 62.769 49.7756 62.2917C49.7756 61.815 49.3357 61.3824 48.8579 61.3886H8.14305V51.4577C8.16324 50.9357 7.64471 50.4616 7.12529 50.5277Z" fill="#292929"/>
<rect x="51.1621" y="40.2888" width="24.3233" height="24.2676" rx="12.1338" fill="#292929"/>
<path d="M57.5493 51.5781L63.3452 48.5287L69.1004 51.5781L63.3452 42.9795L57.5493 51.5781Z" fill="white"/>
<path d="M68.8563 52.5231L63.3557 49.5044L57.7939 52.5231L63.3557 55.4501L68.8563 52.5231Z" fill="white"/>
<path d="M63.3461 61.9449L69.132 53.4377L63.3461 56.2737L57.5195 53.4377L63.3461 61.9449Z" fill="white"/>
<rect x="51.1621" y="40.2888" width="24.3233" height="24.2676" rx="12.1338" stroke="#292929"/>
</svg>
